<mxfile host="app.diagrams.net" agent="Mozilla/5.0 (Windows NT 10.0; Win64; x64) AppleWebKit/537.36 (KHTML, like Gecko) Chrome/132.0.0.0 Safari/537.36 Edg/132.0.0.0" version="26.0.2">
  <diagram name="페이지-1" id="dyLPyH4ATrtR8aAaVOM5">
    <mxGraphModel dx="1045" dy="3847" grid="1" gridSize="10" guides="1" tooltips="1" connect="1" arrows="1" fold="1" page="1" pageScale="1" pageWidth="1654" pageHeight="2336" math="0" shadow="0">
      <root>
        <mxCell id="0" />
        <mxCell id="1" parent="0" />
        <mxCell id="5La-LyKBG8K8z512zvDs-3" value="main branch push" style="edgeStyle=orthogonalEdgeStyle;rounded=0;orthogonalLoop=1;jettySize=auto;html=1;strokeColor=default;verticalAlign=bottom;" edge="1" parent="1" source="5La-LyKBG8K8z512zvDs-1" target="5La-LyKBG8K8z512zvDs-2">
          <mxGeometry relative="1" as="geometry" />
        </mxCell>
        <mxCell id="5La-LyKBG8K8z512zvDs-1" value="github repository" style="dashed=0;outlineConnect=0;html=1;align=center;labelPosition=center;verticalLabelPosition=bottom;verticalAlign=top;shape=mxgraph.weblogos.github" vertex="1" parent="1">
          <mxGeometry x="40" y="139" width="75" height="75" as="geometry" />
        </mxCell>
        <mxCell id="5La-LyKBG8K8z512zvDs-5" style="edgeStyle=orthogonalEdgeStyle;rounded=0;orthogonalLoop=1;jettySize=auto;html=1;verticalAlign=top;" edge="1" parent="1" source="5La-LyKBG8K8z512zvDs-2" target="5La-LyKBG8K8z512zvDs-4">
          <mxGeometry relative="1" as="geometry">
            <Array as="points">
              <mxPoint x="256" y="330" />
            </Array>
          </mxGeometry>
        </mxCell>
        <mxCell id="5La-LyKBG8K8z512zvDs-6" value="docker image build and push&amp;nbsp;" style="edgeLabel;html=1;align=center;verticalAlign=bottom;resizable=0;points=[];" vertex="1" connectable="0" parent="5La-LyKBG8K8z512zvDs-5">
          <mxGeometry x="-0.0206" y="1" relative="1" as="geometry">
            <mxPoint as="offset" />
          </mxGeometry>
        </mxCell>
        <mxCell id="5La-LyKBG8K8z512zvDs-2" value="github actions" style="shape=image;verticalLabelPosition=bottom;labelBackgroundColor=default;verticalAlign=top;aspect=fixed;imageAspect=0;image=https://blog.kakaocdn.net/dn/bt4lkR/btsFJ9wKtMN/t5e76h3GU67SZcRcncdsDK/img.png;imageBackground=none;clipPath=inset(2.94% 37.67% 28.43% 27%);" vertex="1" parent="1">
          <mxGeometry x="220" y="140.82" width="72.05" height="71.37" as="geometry" />
        </mxCell>
        <mxCell id="5La-LyKBG8K8z512zvDs-8" style="edgeStyle=orthogonalEdgeStyle;rounded=0;orthogonalLoop=1;jettySize=auto;html=1;" edge="1" parent="1" source="5La-LyKBG8K8z512zvDs-4" target="5La-LyKBG8K8z512zvDs-9">
          <mxGeometry relative="1" as="geometry">
            <mxPoint x="369.9199999999998" y="185.5" as="sourcePoint" />
            <mxPoint x="700.0033333333334" y="160" as="targetPoint" />
          </mxGeometry>
        </mxCell>
        <mxCell id="5La-LyKBG8K8z512zvDs-18" value="docker image pull and run" style="edgeLabel;html=1;align=center;verticalAlign=bottom;resizable=0;points=[];" vertex="1" connectable="0" parent="5La-LyKBG8K8z512zvDs-8">
          <mxGeometry x="-0.207" y="-2" relative="1" as="geometry">
            <mxPoint x="12" y="-2" as="offset" />
          </mxGeometry>
        </mxCell>
        <mxCell id="5La-LyKBG8K8z512zvDs-4" value="docker hub" style="image;sketch=0;aspect=fixed;html=1;points=[];align=center;fontSize=12;image=img/lib/mscae/Docker.svg;" vertex="1" parent="1">
          <mxGeometry x="617.4" y="290" width="81.71" height="67" as="geometry" />
        </mxCell>
        <mxCell id="5La-LyKBG8K8z512zvDs-46" style="rounded=1;orthogonalLoop=1;jettySize=auto;html=1;strokeColor=default;strokeWidth=4;endArrow=none;endFill=0;exitX=0;exitY=0.5;exitDx=0;exitDy=0;exitPerimeter=0;entryX=1;entryY=0.5;entryDx=0;entryDy=0;entryPerimeter=0;" edge="1" parent="1" source="5La-LyKBG8K8z512zvDs-9" target="5La-LyKBG8K8z512zvDs-9">
          <mxGeometry relative="1" as="geometry">
            <mxPoint x="640" y="390" as="targetPoint" />
            <Array as="points">
              <mxPoint x="560" y="172" />
              <mxPoint x="560" y="470" />
              <mxPoint x="700" y="470" />
              <mxPoint x="840" y="470" />
              <mxPoint x="840" y="172" />
            </Array>
          </mxGeometry>
        </mxCell>
        <mxCell id="5La-LyKBG8K8z512zvDs-47" style="edgeStyle=orthogonalEdgeStyle;rounded=0;orthogonalLoop=1;jettySize=auto;html=1;" edge="1" parent="1" source="5La-LyKBG8K8z512zvDs-9" target="5La-LyKBG8K8z512zvDs-25">
          <mxGeometry relative="1" as="geometry" />
        </mxCell>
        <mxCell id="5La-LyKBG8K8z512zvDs-9" value="AWS EC2" style="outlineConnect=0;verticalLabelPosition=bottom;verticalAlign=top;align=center;html=1;shape=mxgraph.aws3.ec2;fillColor=#F58534;gradientColor=none;" vertex="1" parent="1">
          <mxGeometry x="620" y="125.19" width="76.5" height="93" as="geometry" />
        </mxCell>
        <mxCell id="5La-LyKBG8K8z512zvDs-25" value="AWS RDS" style="outlineConnect=0;dashed=0;verticalLabelPosition=bottom;verticalAlign=top;align=center;html=1;shape=mxgraph.aws3.rds;fillColor=#2E73B8;gradientColor=none;" vertex="1" parent="1">
          <mxGeometry x="622.26" y="-10" width="72" height="81" as="geometry" />
        </mxCell>
        <mxCell id="5La-LyKBG8K8z512zvDs-29" value="" style="sketch=0;points=[[0,0,0],[0.25,0,0],[0.5,0,0],[0.75,0,0],[1,0,0],[0,1,0],[0.25,1,0],[0.5,1,0],[0.75,1,0],[1,1,0],[0,0.25,0],[0,0.5,0],[0,0.75,0],[1,0.25,0],[1,0.5,0],[1,0.75,0]];outlineConnect=0;fontColor=#232F3E;fillColor=#7AA116;strokeColor=#ffffff;dashed=0;verticalLabelPosition=bottom;verticalAlign=top;align=center;html=1;fontSize=12;fontStyle=0;aspect=fixed;shape=mxgraph.aws4.resourceIcon;resIcon=mxgraph.aws4.s3;" vertex="1" parent="1">
          <mxGeometry x="420" y="62.82" width="78" height="78" as="geometry" />
        </mxCell>
        <mxCell id="5La-LyKBG8K8z512zvDs-43" value="" style="shape=waypoint;sketch=0;size=6;pointerEvents=1;points=[];fillColor=#F58534;resizable=0;rotatable=0;perimeter=centerPerimeter;snapToPoint=1;verticalAlign=top;gradientColor=none;strokeColor=none;" vertex="1" parent="1">
          <mxGeometry x="720" y="380" width="20" height="20" as="geometry" />
        </mxCell>
        <mxCell id="5La-LyKBG8K8z512zvDs-50" value="" style="shape=image;verticalLabelPosition=bottom;labelBackgroundColor=default;verticalAlign=top;aspect=fixed;imageAspect=0;image=data:image/png,iVBORw0KGgoAAAANSUhEUgAAC7gAAAfQCAMAAABlzOIIAAAABGdBTUEAALGPC/xhBQAAAAFzUkdCAK7OHOkAAAGJUExURUdwTABgiuSOAABeigBhigBgigBgiuGHAOSNAABfigBwjwBgieSOAABgigBiigBhiOaLAABgigBgiQBhiQBhiuOOAOSOAOWNAABhheSOAOSOAOONAABgigBgigBhiuONAOKNAABgigBgieSOAABhiQBgigAA/wBgiQBgigBgiQBhiwBgiQBhigBgiuSOAABeiwBgiQBhigBgiQBhiOSOAABgigBhigBhigBgigBhiuONAABgigBgiQBhigBgieSNAN+LAABgigBhiuSNAOSOAOSNAABgigBgieSOAP+aAOiOAOKLAABgiuOOAABfigBgigBfiQBhiQBgiQBgieSOAOONAABgigBgiQBgigBhiQBhieSNAOSOAABhigBhiuSOAOKMAABgigBgiQBhigBgiuWNAOSOAOOOAABhiuSOAOaPAOSOAABgigBhiuSOAOOOAOSOAOOOAOSNAOSOAOOOAOWOAOSNAOSOAOOOAOONAOSNAOSNAOSOAOSNAOOOAOOOAOSNAABhiuSOAEDpv90AAACBdFJOUwDYRC5Ey5kRmTsC/ufdBiIfsfxziGZUMwrMt6nr7/llIvN4qvZuAZHkZw7nqKH7EVEXgBTyjDQbVkz+rZbEu9UF4IXPvHhbtu4CDRnIlia/H30sSPcr0WJAzl+A3Nspwwid1HYxOpFuueIUpNc4sy6GP2nIi2JLWUfrXa8mTxyedNsrkeEAACAASURBVHja7MEBAQAAAICQ/q/uCAoAAAAAAAAAAAAAAAAAAAAAAAAAAAAAAAAAAAAAAAAAAAAAAAAAAAAAAAAAAAAAAAAAAAAAAAAAAAAAAAAAAAAAAAAAAAAAAAAAAAAAAAAAAAAAAAAAAAAAAAAAAAAAAAAAAAAAAAAAAAAAAAAAAAAAAAAAAAAAAAAAAAAAAAAAAAAAAAAAAAAAAAAAAAAAAAAAAAAAAAAAAAAAAAAAAAAAAAAAAAAAAAAAAAAAAAAAAAAAAAAAAAAAAAAAAAAAAAAAAAAAAAAAAAAAAAAAAAAAAAAAAAAAAAAAAAAAAAAAAAAAAAAAAAAAAAAAAAAAAAAAAAAAAAAAAAAAAAAAAAAAAAAAAAAAAAAAAAAAAAAAAAAAAAAAAAAAAAAAAAAAAAAAAAAAAAAAAAAAAAAAAAAAAAAAAAAAAAAAAAAAAAAAAAAAAAAAAAAAAAAAAAAAAAAAAAAAAAAAAAAAAAAAAAAAAAAAAAAAAAAAAAAAAAAAAAAAAAAAAAAAAAAAAAAAAAAAAAAAAAAAAAAAAAAAAAAAAAAAAAAAAAAAAAAAAAAAAAAAAAAAAAAAAAAAAAAAAAAAAAAAAAAAAAAAAAAAAAAAAAAAAAAAAAAAAAAAAAAAAAAAAAAAAAAAAAAAAAAAAAAAAAAAAAAAAAAAAAAAAAAAAAAAAAAAAAAAAAAAAACA2YMDAQAAAAAg/9dGUFVVVVVVVVVVVVVVVVVVVVVVVVVVVVVVVVVVVVVVVVVVVVVVVVVVVVVVVVVVVVVVVVVVVVVVVVVVVVVVVVVVVVVVVVVVVVVVVVVVVVVVVVVVVVVVVVVVVVVVVVVVVVVVVVVVVVVVVVVVVVVVVVVVVVVVVVVVVVVVVVVVVVVVVVVVVVVVVVVVVVVVVVVVVVVVVVVVVVVVVVVVVVVVVVVVVVVVVVVVVVVVVVVVVVVVVVVVVVVVVVVVVVVVVVVVVVVVVVVVVVVVVVVVVVVVVVVVVVVVVVVVVVVVVVVVVVVVVVVVVVVVVVVVVVVVVVVVVVVVVVVVVVVVVVVVVVVVVVVVVVVVVVVVVVVVVVVVVVVVVVVVVVVVVVVVVVVVVVVVVVVVVVVVVVVVVVVVVVVVVVVVVVVVVVVVVVVVVVVVVVVVVVVVVVVVVVVVVVVVVVVVVVVVVVVVVVVVVVVVVVVVVVVVVVVVVVVVVVVVVVVVVVVVVVVVVVVVVVVVVVVVVVVVVVVVVVVVVVVVVVVVVVVVVVVVVVVVVVVVVVVVVVVVVVVVVVVVVVVVVVVVVVVVVVVVVVVVVVVVVVVVVVVVVVVVVVVVVVVVVVVVVVVVVVVVVVVVVVVVVVVVVVVVVVVVVVVVVVVVVVVVVVVVVVVVVVVVVVVVVVVVVVVVVVVVVVVVVVVVVVVh7w560srCMABPo5iIEQN14UJINAoiEqtEC9E20QVuTFEnUUvSJkUXLvRHnH8+nTYz7XT0itx7ocrz7DknOd/m5eS73wEAAAAAAAAAAAAAAAAAAAAAAAAAAAAAAAAAAAAAAAAAAAAAAAAAAAAAAAAAAAAAAAAAAAAAAAAAAAAAAAAAAAAAAAAAAAAAAAAAAAAAAAAAAAAAAAAAAAAAAAAAAAAAAAAAAAAAAAAAAAAAAAAAAAAAAAAAAAAAAAAAAAAAAAAAAAAAAAAAAAAAAAAAAAAAAAAAAAAAAAAAAIBkbV5eLFc2OpnMq9nZ2Y/vbja+bFdbE5sOBgAAfhMLrZ2btXC/xc7U6mTDGQEAwGhNnHZK4TEHe1eXC84KAABGY7OaCf0qZCpNnTMAADB0u3ul8DSF4+3drIMDAIDhuc7PhEHU6s11pwcAAENxsjdYbP+mlO9qmgEAgNRlV5dCPKWbC9kdAABSNdcJCSjlmzlnCQAAaWmuhIQU968dJwAApKG8XAgJylQNeAcAgMTl6iFhxakJxwoAAIla6IQUvGu7dgcAgOTkbkI6FnfmnC4AACQjuxFSU8jfOWAAAEhAuR5S1WmVHTIAAMR1FdL2aVWzOwAAxHNXCumrbXtRFQAAYmgchKEoHjYcNgAADKh8FIZl6dCtOwAADOYiDNHSvOgOAAADWK+FILoDAMBvrhKGTXQHAICnmiiE4Su+zjl5AAB4gk4YiYO2J5kAAKBvk2FUei2nDwAAfboJo/P+2vkDAEA/rmdGGNxDof5WCQAA4HEbYbRW5hcUAQAAHjFXCKO21vWVKgAARJvvJ1rPfMrXK5Wp+vvbUirRvXOmEAAAECG71scXpN0fryXlztrzN8k/tFrY9yATAAA87PFZkLet7K8/Kp+t5osJR/fFalY1AADgAfVHbsL3Ju/vP89m7w5vk43ux0ZDAgDA/bKLkVn6PDpLf17OJNovU1lXEQAAuMduZJK+eXxQ49z2p+SS+8xaU0kAAOD/TqNydK+/Aet3+wn2ux+dKAoAAPzqfdT993S/q6xfHCeW3ItdVQEAgP8qR92VHz1lpd16YhPe9xoKAwAAP/sQFaBbT1tr6zSp8e4HxssAAMDPmhHxufbkueq5dkIdMyttpQEAgB+ivk2tDrJgUh0zO15jAgCAf32JuHDPDbbk1vJaItNljHQHAIB/3ETceQ+8aK6bxLNMmS3lAQCA73oPB+fJOOvebRTif6J6pj4AAPDNwcO5OeZMxpPKStzkvtRSIAAA+NvDY9xXYq/d2F6MmdwLVRUCAICvHh4Bs5TA6gurs/GS+4zhMgAAEBnci4msn23eGi4DAABxLaV64/49up/HSu7nJ6oEAMDYK6b2ceoP5Tcf4yT32qQyAQAw7iLeSrpLbpdyK85g98JyWaEAABhvEXfh7ST3Kb/pxYju+YZKAQAw1o4eTsuVZHfKNl/FaJfpKhUAAOOsHvFVaNJ7ZS8OBo/ue1uKBQDA+DqNaC1PvD+lnHtdHPwZ1cNN5QIAYFw1I6JyGu0pjUpp4OhePGz+efd5a0HVAAAYOxNRn4SmsuNJfSbEtFLrvcvXK9ur1W5r+uxtThkBAHjpchEX4KWUHi2dPg7JKh6cfw3y+4dX1ebk7gdX8gAAvEBRA9arKe1Z7tZCmlZqr46PtifXVRcAgBdjPyIA91J7+GhzvhRSV+hNdU9UGACAF6EdFX0v09t3ohOGYrZePcsqMwAAz91W1KeiGyluXG6vhSEp5penNb4DAPC89aKaTd6mufN6pRCGppCpNBuqDQDAs7UTFXe30917+jYM00yv0vQAKwAAz9NlZJNJyq+V5pZLYchm69UTVQcA4NnJ1kZ45f7HH2fHYfg+TWmbAQDguZka5ZX71z8OV6URRPdQyBxeenIV/mLvfnraSNI4AE80BAlbsYXDwQdsCcRfYwvjKAbLJJJzCBcUAkgEkIKUDIccwofwN1/tjnZnd7TTpWnc3eX283wBVxXv4UfrrbcAgDmS2Csz/ZD9AoZfp8XYONt+8PcHAGBOVCaJ4TaHnpJOd1qYye6tMe8AAMyFQWKyXcthBTubjeKi+7TVve+oAgAAovc5MTVvHeexhv7GtEhbZ/vmRAIAELtxYqgd57KGx71psRpnJ15XBQAgasPkSHudyyKO76ZFa/VG+t0BAIjYu+Sp5/mMTWyeTYu3t/uoHAAAiFU/Oc1u5rOK2rcIkvu0ev7RfHcAAOJUSZ6kvvU5p3VcVmOI7tP1tc9qAgCAGO0nJ9nVvNZx344iuU8b3aGiAAAgPs1JcpD9ktdCbtenkXh/rSwAAIjOl+QUu1HPayHHL2NJ7tObkx2FAQBAXCrfk0PsRW5zEpvdaJL79NxXdwAAIjMKZNjX+S3lfiOi6L6iNAAAiMpFcoJtX+W3lIe7eJJ7tVtXGwAARGQl1PHdzG8ttbV2PNF9a9BUHQAAxCPUW/4tz8XUx/Ek9+mrkeoAACAax61Afr3PdTm35xFF9zP9MgAARGM7kF43rvJdz1OvpV8GAAD+rBK6E/o97/DafBz+YWlzPCkwuk/6KgQAgDg8NQLhtVf0CjvD+w+99y+29MsAALDIlkPZ9XUkCz38dfRx+/Ltt/HFy68HuTXUtD/olwEAIIo8vBeIro2lKNfdOaoPl/r3+5trvbOXk7Z+GQAASu66GkiurXloF+k8jF4vv9/Lpl/mkyoBAKB4wWaZm/npFmkO93s/q/plAAAooU5wcMt4Z642dPSxd6BfBgCA0rkNTZaZXs7bliq3pwfmywAAUDK7odTaGM3fpiora19n+x5TTaUAAFCo5k0otbYe5nFfO09vZ/l+091QqQAAUKiH4PNGLzpzurXh2uxGzTR2O2oFAIAifQn3eFfmdW+V6+7Mnl2djNQKAABF6gYz62COd9e5fz+rGZGrx4oFAIDiNF+EEmv1ZK43+DCYUbt7a7uiXAAAKEpl2C7nBdX/2uJo3J5JdD+/Ui8AABRme1raC6r/cbS5N5tLql5SBQCgML1wf/f8N4nUTt7PIrq/WlIvAAAUpPk9mFc3y7DPYW8GQ2aqvTcqBgCAYnxqBXtEVkqx0TebM7iouv5RxQAAUIx+cGbiXkm+M1f65zOYDHmkZAAAKMSHEr/D9Gcrq88e7d7aVzIAABShsroYbe6/+7XXeG50P/McEwAARTh8sSBt7r+rnz73nmpLpzsAAEUIX1DdK9U4lTeDlo/uAADMofAF1XG5NtzZXPfRHQCA+TMIJtWyXclsbrZ8dAcAYN7sjEM5deuqbHvuPDO6Gy8DAEABKTb4gur3Zuk2ffjMXncf3QEAyF34gupuCXf9zGuqProDAJC7UWi+eXVUxm0f7bY9pAoAwDy5DIXU9XJ2hnxefs6TTOt9lQMAQK7CF1QvKuXc+fDiOR/de021AwBAnsIXVDfLuvWlm2ck91cragcAgDw9bAQiantY1q1X9g/SJ/f2ZkXxAACQo5NQRP3aKe3en/Ui03ld8QAAkKPTUEJdLvHmj3rV9IMhPyoeAADyU7sLJdSTMm9/+C79R/fuofIBACA39VC/yHqpB5dX7tO3uk9ulQ8AALkJtrn/2Cn1/puD1A8yVXdr6gcAgLwsh/LpfskP4NNq6o/uN1fqBwCAnDRD09y3Hsp+BKOvaZP71v6OCgIAIB8PW4F0elf6jpBn9MusuqMKAEBOvoTC6Yfyn0H9R+o7qt5RBQAgJ71ANm0swvyU0V7K5N4YeEcVAIBcdEI93pPOApzC4WkjZXT/caSGAADIw9XWAj+g+ofH85TJ/eBaDQEAkIft0MjypYU4hsr2hnYZAABiNtYs8y+f015SvdAuAwBADg4ngWB6uigncdJK2S6zpIoAAMjeU1uzzO+OxtplAACI12Ugl75qLsxRfFz3GBMAALGqvPcM078d9VI+xvSkjgAAyNpx4Dtz+2GBDqN/kCq5b+2rIwAAsnZdTU6l73YW6DAOl6uponuvqZAAAMjYbiCU3i/W/zGTVMn9rq6QAADIVu0uOZOuv1mo4+jsNtIk93VzIQEAyNinwMOhywt2HkupOt0bv+0oJQAAMnUfiKRX2f58s77S3x+8XV5e7nW7txGcx2E33VzIjlICACBTgTmIP7L63fro9fK7/x1r0z6J4UC+bKRJ7t8/KSUAALLUCdzIvJ79Tx6PBqv/dxJldbcWwYl8fpcmuW+M1BIAAFlaSb6Q+bMy819s/fWvXRxHcCKVzXaaRvdNtQQAQJYCMyFn/8JQf/mvf60VRbvM8Guaj+5dE90BAMhQ82diHD2YfRxt7iXF38MIzqTzLU1yPz9WTQAAZOcxuTPk9ex/8UvS701imC7zS389RXI/eFJNAABk50Pen9wrN4nd4oNKBIdy/CNFct+6V00AAGSmltwssz37Xxwm34i9iOHF1p3tNHdU1yrqCQCArDw1cv7k/ssgOf5OHmM4lsc0d1THrqgCAJCZ07w/udfukuNvayWGY+mMUyT3l66oAgCQWUJNmvMy3cvgXaRPrcCDRlEk91/2U7TL7A0VFAAAGeknRtEshquPktvcp+v1KA7maZLiFdW+ggIAICNnid0fWfxioM19eleL4mDStMtUBwoKAIBs1BN7QrKYT77TDcTfyzhOJtV0mW81JQUAQCbeJuXQbha/WDsPDEWP5Zbnyt7fT+4/OkoKAIAsdA6S3kTKpOH8TWDc4mksZ/Pm7O8n9xvDZQAAyMR+4rtCmfxk/SAx+7aPYjmbymXjbyf3yZWaAgAgi3B6kzTjJZue7eHGPHS5/9M/2Lu7lba2NQzASrVgxEhtD3JghIjGf6wVa0O0YA/sSVHbgj8FBVsPPGgvwjtf7L3pXmWtOjK+mTmbBJ7nBga8jIM3M2N8Y2Ij3NyblzYVAAAVSI6EPK5mzc/Ji58bQ3TFc/9DuLkvHNtUAACUr516zfSwokWPk2dQ1oYonsZWfCzkol0FAED5OqkSWtWJ7W/Jc+JDNVWxwDOqKzXbCgCA0k0OYsTLSqr4XgxVPpfz4ebebdhWAACULfXJvVlVA609S12K3R2qgGa/xge6a+4AAJStff7nr6eOja2nVu22hyqh9W64uU/u2lgAAJQsNcv9vrJVz5qJZZeH7LfNYnii+8ysjQUAQLkaiQo9V91ToJ3px5fdG7aMXraizX3jiZ0FAEC5UjdFv1W37N7jq74auoxOxsNPMU3ZWQAAlOp1on5+rW7Z+vWjqw7hKPTt+2hzb03YWgAAlOo6UT9fV7fs2qiccf+Pdm0l/IjqS1sLAIAyvUu9JlTdsvXVUXg89W8X0Suqcxf2FgAAJXqSGqpe4Tumzx9btDOcOXWiV1Snl20uAABKdJQony+rW7bx2KOkd8P6C2c1elzmhc0FAEB5blOvIVW47sdH1hza54v2r6LNfc/uAgCgNG9SVywrbNHrvx8hvzS8Sa2/jzb3g7b9BQBASXbnBvSM6Ys/PYOyb/UtzR0AgIGZTBTPwwrX3Vn63Yq3Q53V4nSwud/WbDAAAMqRGgg5fVbhwgejMw3y/74sBJv7puYOAEA5Lh8GdFbm7Hcl+MmQpzXRjDb3ui0GAEAZ6q0BnZUZ+82R8ebQf6D+dBRs7l3NHQCAUtynzsrsV7jwzb/vxW4Nf1w7k5o7AACDsDioszJj3VF5N/VXtca95g4AwAD8eBjUWZm7fw5paTZGIbB6V3MHAODPq7UGNVfmX6d0no5IYrex4j7dNVsGAID+vR/YWZl/TLSZOxmRxNp70W/umjsAAH37NrCzMmOHo3Y19adF89wBAPjTXqca51yVc2XGOr8utXAyQqEtz8Wa+5bmDgBAn2rzAzsr0776ZaVXI5XacfAR1du2nQYAQH82B3dW5vjvha5GbPZKZynW3FdsNAAASmvPvzkrs1Pl0rXrn+ssfRq12C6bseb+zk4DAKAvu8nz2muVrr328/fBy9HL7W4j1twXbTUAAPpymqqb7ytdun70v1HnF6OY2+xMrLk/t9UAAOjHWqptLqxXuvbz/35vXx7N4PavYy8xXdhrAAD0IX1W5k2lazfmHx5anVFNLtrc39hsAAD04T75eFC1a398GD8Z3eT2x0PNfeGzzQYAQHFfUmWz1ah07fUPO6Mc3c7XUHNfmrLbAAAoXp6TM8kr/kpcG+2niYLNvXlnuwEAUFjyDaan8imxuW+ciAwAgKI6yapZE1CJzX1mR2QAABRUn09VTeeyezT381BzP98WGQAABR2kmuaefEpt7ocNkQEAUMxUqmhey6eH3VBzn+46fAQAQDHtmVTT/CSgHrYnQ9/cDyQGAEAx71I986N8Sm7uixIDAKCQm1TNnJRPT8HTMl8kBgBAIVepmrkvn552vkea+8JniQEAUMTzVM1ck09v+0eR5t7yhCoAAEXszCVa5r18MpxshJ5QPZMYAAAFvE0d7PBmUI5PzUhz/ypUAAAK+JIqmcfyyfGjFWnup3WJAQAQtr6U6Jib8skysRRp7rcCAwAgbjN1lbIhnyydBePcAQCouHOmKqbphZmO5yLj3B1BAgAgrD6fqJgH8sl0MR1o7ks/BAYAQNRBanhhTT6ZvoWGQs4KDACAoKlUw5yST653keb+fV1gAADEtFNPf67IJ9tKpLk/818GAABBqU/Fq2355Kp1I839hcAAAIi5SfXL1/LJ1jiMNPcLgQEAEHPuw3A5tr8HivvCpcAAAAhJDUSZEU/A2Uaguc8bLQMAQMh+6vWgO/kE3LUCzf3cw7QAAIScJtrlO/FETCwEmnvX1V8AACLWEuVyXDwhx5EnVBflBQBAwHbqM/En+YS8ChT3uY68AAAIeJYolx/FE3MQaO7NG3kBAJDvTeoKpXhias8CzX18XWAAAGRrNBPd0kfhoPUrF1QBAKjGlrkyJdq9DjR3R5EAAMg3kXqDyTfhqJumC6oAAFShtpqollPyCf8QmgtcUPWCKgAA2VYSzfJAPGHLXlAFAKAKr1OfhOvyCXsaaO5b4gIAINd4olg6hR1XPw009wt5AQCQKfXg56Z44naP8ov70p28AADIMzud6JXb8omLjJY52pUXAAB5Th3lKNnLwGiZ+5q8AADIcpGolW/FU8RH7zABAFC6RivxSNC+fApobwbeYZqQFwAAWbYStfKbeAr9GJrMb+6rO/ICACDHRKJVjrflU8TOan5zf+uYOwAAOdoziVY5JZ9C7pbym/uiuAAAyPHK457lOw4cc/frCACAHEa5V2Elv7lvOOYOAECO1Cj3ZfEUU/+Q39zfO+YOAECG1LGOc/EUtD+f39xN7wEAIEN93vXUClzmv6A690NcAAD0tpfolJviKSrwgurMurgAAOjpJHE9dcHrqUW1u/nN3fgeAAAypK6nvhJPUdvX+c39WFwAAPSUup66UZdPUU/y32FqnYgLAIBektdTfQsu7iL/k/sHP5AAAOgpdT31qi2fwm7zm/sLaQEA0EvqeurDZ/kU1rjKnwk5IS4AAHp5m2iUp+IpbraZ3dyPtsUFAEAPnQePMFWUbP47TF1pAQDQQy01ufCZfPqwZyYkAADlWU70yek7+RRX/5Bd3Jtn4gIAIK2ROou9KZ8+zLaym/thTVwA8Bd799ISV7qFARg5RrAkhmgGNdACRcs78YI3TAQd6EQSjaBJgYKaQQbpH3H++YEmfbpJu9de7G9XMnmen/A6eWv57bWAWPSiY8p1oBKD/GOZaWkBABC7jD6iHJNPifV0ce/9R1oAAMSOoj65L58Cqy/Tzf3GAVUAAGLjUZ98kE+JvZ4DqgAAtCXafjJ1L58SV/kDqrbmAwAQO3AcaGg6x+nm/rIrLgAAIv0b51OHZn8m3dyXpAUAQOgsXDEunyKb6eI+MSotAAAinZGoTx4KqMhYurmfrEoLAIBIeCnoxlXPIt2bdHO3Nh8AgFDnLqqTAwEV+bSQbu7+uwEAQOg2fMHhNlCZ6XRxX34rLQAAApMnUZ18ElCRzvt0c3fwCgCA0ErUJhcuBVTk1Vy6uV9LCwCAQDxyXxdQmUWbZQAAaMfAHHiIOh/Tzf2dtAAAiKrlY9Qm73yfWuZyzhkmAABaEV/4nBdQmZX0yP1lV1oAAAQufJ86RP3zdHPflRYAAIHRsE0eCajM/my2uE+NSwsAgMCxo57DdJseuT/6ogAAgMDeRPh9qqfXhfKPZXxRAABA5Chsk28EVCb/WKb3QVoAAFS7nwqfXu9JqMwgPXL/JiwAAAJjYZv87rFMoaN0cz8TFgAA1bbiM0GnEirMN/1YZu2ttAAAqDYf7yn8Q0Jl8meYHoQFAEC17kl81HNVREX6H7PFfWJUWgAAVDuL6+SGhMp86GWb+4gvCgAAqNZ/EdfJAxGVOU0/lrkSFgAA1T7HbXLWhvEy3btscV8QNQAAgZqVhSPWnRT+MprINvePfWkBAFCp7hX2eUdGRTbSj2UGwgIAoFrdK+x3IiqyM5Mt7jM70gIAoFL3ZU2fXJJRkUF65G6JDwAAgU37Tobr2DJ3AADa8LquUM7LqMSHBcvcAQBoweVcXaHcFlKJq/RjGUEDAFBULBXKEpOP2eLeeyUtAACqi+VIbaM8lVKB8fQy9yNhAQBQbbS+Ue5KqUB+mbvvUwEACKzXN8olhz2b25rLFvcvDl4BABAUy8SVIPvcCzylR+63wgIAoNpBolJ6595c4jOCH9ZWpQUAQLWjRKd8ElNjo+mRu99HAAAEtmYTlz0HcmrsPFvcFy6FBQBAtc3MmvFxOTX1qpdt7mPCAgAgkFlZuLYvp6Z2XWECAKAN3btEqXw/KaiGVpeN3AEAaMNe5jHHtpyaGhi5AwDQiulMqfwkp4b6F0buAAC0YixRKj+Kqam9KSN3AADaMJnZWXgop6YejNwBAGinuSfuML0QU1OZZflG7gAAtNTcLXNvbDo7cn8nKwAAQp36d+4PUmr8u+guez51R1gAAIT6b+pK5WxXSk2dZUfu87ICAKDG9ERNqXySUVOdL8nivubSFQAAdW5r1haedGTU1Gh25D6QFQAAdRZrSuVXETX2LVncb/qyAgCgzrZp8LB8zV5hGpUVAAB1+vElpl0JNbeRLO7nogIAoNZ+eCroSEDNXfZyxX3iXlYAANQK9xa+lk+B3eTIfUlUAADU6tx4xTEkO7O54m5fPgAACbdBpfwmnhLzyZH7iqgAAKjVXahulOviKYp2OVfcv4gKAIB6515fD8ttcuT+h6gAAKj1VF0or6RTpPOYK+4bogIAoNZ1daG8lU6Zw1xx7+2ICgCAOlfVhXJcOoUucs39SVIAANS4D+4EvRVPoeTI/a4vKgAAQv331XVyWTzF8X7JNffPogIAILRpjftvy9fnqQAAZHVGgjZ5Kp9i/ZtUcV/wKgkAgMhB1Cav5VNukBu5L0oKAIDAi6BLTpgCt2ByLVXcbyQFAEC18ahLPsqnDdu5kfuepAAAqPQQVcl38mnDVi9V3MckBQBAldW5qEpuCqgVG6niPteVFAAAFcJPU6c8cW/HeO6tzK2kAACosB4VyQv5tOR7qri/FxQAAM+bnI2K5LaAWvKUG7l/eDphKAAAIABJREFUkhQAAM+6tubkl9iaShX3XUkBAPCssahGrvUF1JbXqeI+4/NUAACedWI94a+xmXsrcyApAACecRm2yEMBtWZyJlXcjyUFAMAzBtaK/ypLqeI+8UpSAAD8W3g2dV0+LfqUeytzKikAAP7tzkuZX+ZFqrivTUoKAICf7UcVclaFbNVibuS+KSkAAH4Wrjp5kE+rkqvcv0kKAICfvYka5Kh82nXu81QAAJo5jm4BdeTTrjOfpwIA0Eh/NuiPS/JpWXfO56kAADTxIeqP4/Jp24bPUwEAaCI6v3TipUzrrv/r81QAABqIjnm+EU/rOsu5z1PvRQUAwD9dBO1ReRyC3dzI3ecFAAD80+RCdXe8EM8QfM0V99lVUQEAkKuRK+IZhptcc1+UFAAAf1upbo69HfEMw2KuuH/viwoAgP8bq26O69IZip1errm7WgsAwN8eq4vjtXSG4yhX3I8kBQDAX95OVR/vtMR9SA5zxX3qUlQAAPwQnAPalc6QdE5yzd1fAACAv5xa4v4bzOeK+5yNkAAA/HBsiftvkP08dVpUAAD8aXLOEvffYT1X3E98ZgAAwJ8+e6bxP/buZqeNLQsD6I0akGIrIJwMPIgtgcCEP5lgkYACSGYAExQSIgWIFKR0GGRAHoI3786gu29ys+HUle2qrrPWA/hIX02+2iqfXYrHacX9bldUAAD88CysjJvCGafptOI+LSkAAH64CivjpXDG6Thx5P5dVAAA/PHHy2ZUGJ/0pDNOsy/SirvttQAA/NunsDC+F854LVrCBABAsvByk+accMarv2AJEwAAiWY7UV08EM647VvCBABAoimXuJfnbcsSJgAA0qxEZbE7EM7YzVvCBABAms9RWZyXzfhdWsIEAECS87ArHgtnAq7SivuppAAAMvc0vIPQlzKTkLqE6bGoAADy9s2dMqVqDNOK+xtRAQBkrb0UNcVF4UzEcuISJpfqAwBkLb4M8kY4k3l1ep7W3FdEBQCQs52oJ673hDMZ24lLmPqiAgDI2MeoJ87IZkIGC5YwAQDwUGlsRjVxSziTsm8JEwAAD9gK16auCWdS5lqWMAEAcL+VqCSeyWZyNixhAgDgfuHezm3ZTM4/mpYwAQBwn7XwI40Pwpmgb5YwAQBwnw/huh+fuE/SVOISpmtRAQDk6VlUEa9kM1Gnac39i6QAAPJ0Zk1nNeylFffua1EBAOSo0XHzYDX0rtKa+zNRAQDk6DwsiCa7E7abVtw7fVEBAGToIuqHT2QzYY1Hac39q6gAADI0E9XDTdlU5iXqZy9mRQUAkJ+PUT1cls2kzQ7TmvuFqAAAstPuRu3wUjgTt5xW3G8bogIAyM2rsB0OhDP516j1tOa+JSoAgNyEn1UPZVOCxbTifiopAIDcrETdcF42JVjrpDX3x6ICAMjMQVQNj2RThu204u61CgAgMz17U6ulv5BU3JvnogIAyMpcWA3fCqcUO2kjd7fsAwDkZS8qhgtuHCzHy6Wk4t59JyoAgJw8dW9J1eynjdx3JAUAkJMvPsWomnfdpOK+0BcVAEBGTqNeuC2bsmymjdwXJQUAkJHwUplj2ZTlupVU3NfbogIAyMbLsBZ+F05p3qSN3FclBQCQjcuwFb4UTmlumknF/ZGLfwAAsnER/vVRNiU6SRu5b0kKACAXR1EnvJJNib6nFfdpSQEA5GIj+ijjjWzKdJbW3C8lBQCQifA2yGeyKdNUWnH/JikAgEw8d2PJ/9kb1c9eSQoAIAtrYSPcE06p9tKK+7ykAACycB42whvhlKp3lVTcm+eiAgDIwQfXuFfVbtrIfUNSAAA5CK9xbzV60ilV41FScW+9FRUAQAa2oz64LpvKvlT97IukAAAyMGP/UmXNDpOKe/edqAAA6u8kqoMnsindatrIfV9SAAD1F15dsimb0rXXk4r7kv8RAwDUX1gNj2RTvqdpI/cdSQEA1F2vG5XBZeGUr/08qbgvDEQFAFBzg7AMHgunAt6njdy3JQUAUHPXYRfcE04FrHWSinunLyoAgHq7DLvgpXCq4Cht5L4oKQCAetsNq+CNcKpgsJRU3J+3RQUAUGvxTeFzwqmElbSRu/8SAwDU29ewCbqopBped5OK+4tZUQEA1Fn8CbUiWBEzaSP3VUkBANTZfriNUzYVMddKKu5Db1oAAHW2GfXAddlUxUbayP2TpAAAauwkqoGfZVMVN82k4n7bEBUAQH2dRTXwSjaVcZg2ct+VFABAfU1HLfBUNpUxlVbcP/ZEBQBQW7dRCzyQTXWcpjX3PUkBANTWMCqBZ7Kpjt204j5t5A4AUFvrUQk8lE11NG6N3AEAMrcQdcAT2VTIRVpxvzJyBwCoq3C5z7xsKmT2RVpz3xIVAEBNC2FYAd+M89jenOiLWTRyBwDIWjusgBvjPHZ56UL2hfQXjNwBABT3SRf366W75qrwC1lJvMvd+lQAgFpaCxvg5vgOnf2x9an7XfpFzLWsTwUAyFi/jOJ+ZDb8N2ykFfd/ihUAoI5elvCpzOOWz7H/hu9pxf3uWFQAAFkV97HdKjP4z82G0+Iv5CCtuN8auQMAZFXcx3WPe+Pwv0e8kn8RW0buAACK++Q2px7974gd+Rd65blNK+6fjdwBAOpnENa/w/EcuPeny1GGtgUVspo4cv8kKgCA2olvlTkYy3lznT+fce4BFNF+buQOAKC4/+p0LNXz409nLHsAhRwljtytpQUAqJ14AdPVGE7rbUzo5pqaet1NK+7DWVkBANRMOyx/H8dw2vYvZ3R801HMZuLIfVVUAAA104g/lB79YVvNXw9xIWQxN3dG7gAAmQo/vlgf+VHXnb8c8tUDKObMyB0AIFOdqPotjfqkwZO/HvLNAyhmy8gdACBT62H3G3H1a5z87u2g7QkU0nuU2Nxd2AMAUDPDsPoNRnvQym8P+eAJFLOcWNzXvRIBANTLbVj95kZ6zqffH7LvCRTT7hi5AwBkaTpsfjejPOZm6feHdHyLXdAzI3cAgCwdhs3vcoSn9J9Ep2x5BMWkLmEycgcAqJf5sPjtje6Q3pvwFPfKFLVh5A4AkKN4F+fx6A55f0+/PPcMinl1Z+QOAJChlQn0vqnWPfXS31OLOkgs7i+M3AEAauQo7H3bozqiP7yvXi71PYRiUpcwNY3cAQBq5GvY+2ZGdcQDH2U/9RCKaTxJHbm7sgcAoD4uwto3P6ITPj1QL4cNT6GQXuoSprsLYQEA1MZe2PqmR3PA3IMbg7Y8hWLWUpcwPfJOBABQG4/jDy1G8vu9h/9KeegpFLSTOnL3TgQAUBtvw9LX7Y3i9y8S6qUbIQt610os7tOyAgCoi37c+gaj+Pn1hHo54zEUlLqE6W5KVgAANdFrjXUQvp/SLpcGnkMxN6nF3WdIAPyLvbvpiePYwgCcq2AkZuRBjL2YBYyExfcM4kt8WBgkWMAGgQHJ2EhGwmbhhf0j+p/nJrm5SWy6qOpuYBo/z9Z0WTpn81JUnQKejLn73K29iTvT8UobEu3GJvcNtQIAeCKe5Wa+y9JrN47i0qWJkKmGYoN7X60AAJ6IsdzMd1p67a3YeLmlD4k+RFa2PapWAABPQ/4p9OuySze+xgb3E31IdBBb2jdqBQDwNJzeX5q+zKLdaETiL0V7kZV18xcA4InIH7S+V3bpd/HB/VojEk3HlnZVrQAAnoTz/OPRrfta2b5weZ2JyNJOdBQLAOApyH86NTsut/KXhOBewU3Yn81+bGmn1QoA4CnoNHMT33mphUfbKcF9rqUVadYmlRYA4KfSy01886XW3c+SmAiZaj22tAdqBQDwFOQ/krReZtnGXFpw39GJRCtTkaV9N6NYAABPQD838G2XWXY5S7ShFYnexJb2tVoBADwB+UdavpZZdiw1uC9qRaK33cjSPlMrAIAnIH+Qe7vEIMGlbmpw767oRaJrW+4AAD+RkXt5z3Q+S+aloFTRg3uO1AoAoP6W8vPeZfFVd9ODe8/YwlT92NoOqRUAQP2N38NYmZV2enA3tjDZWdPMHgCAn8dObtw7LLxmgZMyWfZBL1JtO+UOAPDzWMx/c7PwmodFgrsDHcnOYv+y8bWhWAAAdfc5P+4tFVyyM1UouB9qRqroU+4XagUAUHfn+WlvpOCSy1kxv+pGouPYLfe5jmIBANTcZn7amy645HDB4O4RpmSLsbV9pVYAAHU3UXmQnisY3LubupFoNPalqwkPXAEA1N1Jbtj7T7EFr7KiXupGqjexte2rFQBAzc3mZr3mWqEFpwsH94kF7Ui0EnsRuGkkJABAzQWGrp8XWnC7cHDPXmhHqvXY2n50PxUAoN5u8rPeapH1GhPFg/tcSz8SrU3GFndVsQAAaq2Vf7/xS8W/CNztQD9S7Uff/T1WLACAWnuWf+a8yIOb02WC+7sZ/UjU6cUW94O/ZwAA1FpgMMlVgeX6ZYJ7NqQfqeaji7uuWAAAdXaRn/QuCyy3Vyq4H+pHqsaH2OK2/VoEAFBnv+Ynvev01TZL5faseaMhqYaiq9tbUy0AgPoKjIHZS19tq1xw91BQAWPR1R1rqBYAQH19yQ966YNI1ksG9/aVhqQ67kaXd1a1AADqazU/500nL7ZbMrhnixqSbDahvN5hAgCorcAZ6e3UtWYmygb39qiOpFoaj6/vczdUAQDqaqFd3ST30cjHgAL/NqwjyVKG5zcXvcQEAFBTgXmC3xKXirybGnrus7upI6lan5L+qNHfUDIAgDoKXCg9TVxqPyo5nnTGXaCs1Egz7UDSh+klRQMAqJ3XgYiduNR2VGxc/uWVLfdqDSffJdi9XFA2AIB6CRxy7yZuzH6NyYwTjV+CW+5vtCTZUi/9HvDU9pYZMwAAtXKUH+4ukxZqtWMC4++zaj6Httzfakmyg0IzfCYXh7zJBABQHy8Db20mLXQWlRZf/Pcng1vuBssUUHSC/tzpmuIBANREYJL7VNJhirihMue//6gt94qNThUdnT81bHY+AEA9dCbzU91WykKrUUHxj5gY3HK/1pN0pyVevVq8Uj8AgDoYy890/ZR1+lEpsfXHz4YGy7TlyHRpw9y/f5ZpzGx3AIDB15gPXF9MOSsTFR3n/vzZ4JZ7X1PSjbSzMg5HlBAAYNCNBvLc6/hlWt2YgLjzv58Obbk3v2lKuvWsnGeXRswAAAy4wPz1xfhVrqLi4V8LBrfcv+hJus6nksk9+zhvsjsAwEBbr+SszOuocPjqrx8PDZbJ3mtKuo122eSeja+uqCMAwOAaCUS5i+hVpqOi4f/P3gS33I9mdCXdalbe1PCZQgIADKpG7+4z6XebjQqGf+/ohk65Z8u6UqCPR1kVdrYcdgcAGFDDgRgXPZtxLCYU7v3988Et90+yYwGjE5Uk9+zj9IJiAgAMotDx9PXYRaLuRv5z0mNwy/1SVwrYyioyOWyYPgDAAGoFdmp7rbg1ZqZiAuH0P77o9EJb8y1tKWCxquSetXdfu2gAADBw+uWPm29GxcGbf37yOTbiE6vzLqvOuwvjIQEABkzorMxY3BIjUScw/nV0PXjKvSc0FrG5V2Fyz8b3N5UUAGCQtAIRuv02aonLmCC4++9vglvup9pSxPFclck96/Y31BQAYICE5srsR60QNUT8u6WCW+4Ta9pSxMpRVq2TZSN+AAAGxvus7PXUqGuRW999FNxyn9WWQlrDFSf37OO8c0sAAAOiETpgcRCzwklMAjz+7qPglnt3VF+KOd+rOrqP768oKwDAQHiZlXw99XlE/Jv64czF59ih76RYmO1WHd2n3vg9CgBgEBw3Y4c43q4RkxSPfvgsuOXe/KYvhfu53aw6urcXPcoEADAAdgKR7fruz1diot/wj98Ft9x3tKW4b4fVR/dtI2YAAB7dReiYxN0DXjZigt+LH78LbrnHPv7ErW767aqje/ZlRF0BAB5XZzIQ117d+flyTOq7LYcHt9y/GkRYyuj6ROXR/fBGXQEAHtV1IKzt3Rmgp2My39ltvzAEt9zn9aXk72OXVY91z5r9Y3UFAHhENykD2H+wHpP4bp0G/io4hnBBY8q6Wv1Y9Vn3vgkzAACPaKfMNdF+RN6bu/XL8Jb7qr6UN/N+uOIjM93ZJWUFAHgsB6Gkdtc4kZgDGSe3fxo85T65qTFV6GyNVTvavXfh/gEAwCNphV5P3b7j415E1suZKtnpJY6QpJClrcXJKqP7BwNmAAAeyWrofPpZOPTHDB7Mm00T3HJvn2lMZTrLixWemWlerygpAMBjWJkKpLR+8NO3MUEv74Zr+JT7ocZUqXU+3Kssuk9MOy8DAPAYhkM738EZgCMxMS/3nHxwsEx2rjEVO1t9Vtl5GVPdAQAewXE7/YT6nw5iQl7uIJLwlvsnu7rVG31xUs2zqt3VlmoCADy47VBCC83u/hxzrqLo59Macx+WDrYruaz66ZtaAgA8tG9ZwVPuszGnKvI/D2+5j5sZfk+quazanu0oJQDAA9sNDREJjP8bi8h3oYmS4VPusxpzbxojs3Olo/vzIYUEAHhYwUumOzO538VcdlwP/L/hLffulc7cZ3Z/X3rAe/PaX0UAAB5WaMs9u8j9bDwi3AWPqoe33I2EvGedrbGSd1V7W6oIAPCQglvu42s5X7WaEdHudTA5jhsJ+bjenj4vF937nmMCAHhIX4rcTx2NCXbhJ1DDg2WMhHwAjaHtbpnkPr6shgAAD2cjuHl+cPtH72Ny3ULw/71jy91IyAex8uJdmei+6KQ7AL+xdy89bSRRGEBnNICEEUY4LLzASLawwTzESzwsHhIsYIM8JpGAIAUpIYssmB+Rfz5RMplJgt2uNm7T3XPOGndJt7z43Ny6BYzOWuQs9k7Xz4TcvzTfZ93oV+5GQo7KH7urgyf3ZT1NAAAjMxPZLjHedWR3LSDTjfdZt88rdyMhR6YwNvh096kjM90BAEYl+jKl9W4fOXrmGPevol+5L7TtzOiUDwZud5+eVD4AgNHYiX7d+tDlIyH3L831DYuPRkKmyMbNyWATIku7XroDAIxGPboZovn0E28D8txN33Uno4Pipp0Zsa36+EDR/cOe2gEAjEIhOoeX7p58IuT+pYAOiuiOm2kvckevfXY6QHJf2Da+EwBgFCaj71Oa+rVbphwS5nb6r7sSHRK37cxL/IwbW6/Gj+7jjiQAAIzCep9YtvTzC9V2QJKrhKz7JvIRizN25kWsNN/GTu7VG3UDAEjeVr/el8ufMvRYQJA7Dlr4feQzZu3MS9mbiP3a/dDofQCA5N31fYF+14jx118cBa27Mh35ENf7vJjGysNy3NuYbpUNACBxF/27mP87bXoVkOKaYetGT5Z5V7QzL6d4EHPIzNSS/QIASFqnf2fE1OH3N6oTASHur8CFzyKfUrMzL6nRunZGFQAgZeohuey6vv/bbzPbqwG38oTOcixGvtWt7tuZF1W4O3VGFQAgXQntOCyZvV0KOrX4GLxwO/J5a3bmhZUfqs6oAgCkyf3i5yGaCF84+qjrmJ15afuHzqgCAKRJfZjB/TzGwpEzIT847/jyWqfOqAIApEfj0xCDeyfGwuXIE5Cv7MzLK88txNn9Px1NAABI0v780HL7cqyF25Wo+1M7diYF2idx9n++pWIAAAlqTQ0ruL+Pt/C5+1NTr9GsxGmXmSsoGQBAcnaHFdzjvnA9inrYpo1Jha1Yh1THZ1QMACAxoTMh+07zLsdcuPhnxNNOy3YmHQ7iNFNVDhQMACAxneG0uR/GXnhrOeJxuzYmJXbWTZcBAEiH24VRD4P8x17EGPnSRxuTFrEmQ2qXAQBIzjCmuc8P0ttyE/HASycdU2PlvXYZAIBUmHh+cB+stWUp4ol1+5IerdUY3wXtMgAASYk8JxqkNFiDROEi4s3tlo1Jj521GN+GS5cxAQAkZOX6mcH9YtCFP/R+5pp9SZM442Xmx9QLACAZW6fPC+6Tgy7cWR3eZHiS/Y7EmOnuMiYAgKS0nzUU8hkvxyd7z7SZNsw9Xe5iXKR6saFeAACJ+PiM5L7wnBGA51M9n3tmW9KlcxL+pTjdUy8AgET8MXhyX3rWwrXePwgMc0+ZRrMa/K1YbKoXAEAi7lcHzO3TK89buPdQyGuDBdNmJsYEonW9TgAAiXi9PNgoyMlnrluY7fnsml1Jm8LDYvBX47qtXgAASdgfaCrkw7PXLV/2bLeQ/FL4Ay/8a1IxGQgAIBErF/Fz+3rj+evu/N7r6cfGCqZPcXcqeC7ktg0EAEhC4Shubp8dSht6p1eXzlTdpqTQWHhX1eyKcgEAJOGgEi+3D+n84X2vmTbVjj1JoZ3w25h+v1cuAIAkzFzG6ZMZWiPEXq85g59sSSrdBA+GrG6qFgBAEopnC6EXLw2zj+W217CSO1uSSu3gX3hTZxrdAQAScR92Qeb1cO/G3Cz1mEyyZUdSqXBWCo3uFxvKBQCQiIP+hw+rV8O+Hem8Rw48tB8pNXkamtzfvVYtAIBElB+i71FdOErgPfhNjymDm/YjpVbWgxvdD1QLACCh6N780DOFzZ8l077S7J7cVzVapFbwFKKpOY3uAABJmTzqNqSxutYqJrRgod499K3Zi9Tq/Bnc6G6iOwBAYgp/XX36MbxXTs5ui0kuWOue+fRZpPg7UgudQvTYVi0AgCRtTZ43a7Va/Xyyk/xiV917c0yWSbG9x8DkXhlTLACA3HjV/YZWhUmx8tJUWHIv1RQLACA3ml2nQt4oTJq9WQ29a7esWAAAuU7ulY7CpNnWbGByv9T1BACQG11vYjppKEyaNZqLYcl9eU+xAADy4qDbnJK6uqTb/duw5L54p1YAADlR2OyS3BcNE0y54m4p7C6mM3cxAQDkRatL38V4UV1Sbmw57KX7oSOqAAB58aZLcjdLMPU21sKS+9t9tQIAyInb6pO0t+BYY/q1ToOS+6q9BADIi8nKk7R3rVkm/VYmgm5jWtxUKgCAnLh/+u52V1Uy4PYx6IiqzicAgLzYv34S9lqqkgHFejUkuq85ogoAkBMbx09ao927mQkzF25RBQD4PynP/pr1Llygmg2bIZMhp18rFABAPhQmXKCa1R9dcwHXMVX1PgEA5ERj+9dpJF7SZsXH8f7JvdRUJwCAnLj55cXtB0cas6JwV+kf3efUCQAgJzYXfk56R0qSGVuH/ZP7rmMLAAA5cVsxEzKzDlb7JveJgjIBAORD+91PQW/eFMEM2Vnrm9zXvXMHAMiJjZOfgt4nr2izpNV3MqTuJwCAnCgUjn4Keq+UJFO/uyb6JfeaIgEA5EX9x+EyC5MKkimbfcbLTJkKCQCQG63qD0HvdENBMmWmz0z3khPHAAC58fr0h6B34TxjthTmpqLvUHWxFgBAbuwc64rOsFZ0u8zpjhIBAORF+YfJgqVb9ciYzmVkcj8xKwgAID+u/juiutpRjgz/8OpiSYUAAPLjzfy/OW+8rBwZ0ziLbHQ/VyEAgPzY/6/fYl01MqdZigjuix8VCAAgP8rv/w16ddXInLuo5P64okAAADnSXPh+QPWNYmTOeVS3zJr6AADkyd73ie7VPxQjcx6i2tz9EwUAIFe2Tr4P/95XjMw5igjuC3vqAwCQJ4Xtf1ql3xotkznFcfcwAQD8bzQ2q9+C3qxrezLnfjEiuc82FAgAIFfaj9+C3q5SZM5ZVJv7g/oAAOTLxqdvQa+pFFmzU40I7qVJBQIAyJfi+reg11KKrFmKeuW+rM0dACBnGtuGQmZTKyq4f/7k3AIAQN68+nqbz+qMSqTHyn5773ZsbPPg4KbZfFWrnc3NHU3szn2xXfvioflF5Cz3z5+vVBEAIG/qX5P7uy2VeMmofn970LxaWr+4/H258nkISmOKCgCQNzdfB7pfb6jEyO3sHbxaOjyeXvw8dBX/QwEAyJ3zr8n9+G/27oapqTMNA/C0RlpCgRJsYTsEJSVGIFSEEkIrIqyKrax82MqHooLU6a66q06ru7M7257+8i10ptPFWj3J+Qjhun4Bc59wzp03z/seL2JKzlRmaHJhZyCI0c6wmAEAmk11v7kvdEgifsvThfJGrI391/cw2aAKANCkzX1U04tTdnXt/Ew+SM68zAEAms4v0zIlQcRkuTq5NBAkzYu1AACaz+Z+cx8XRPQ6N1vag1TkqtIHAGg6v5wtUxREpKbWymeC9AyuuwQAAE1naO889zbTFZHpzUzuBCnL77oOAACaO682sdY1GDQAG1QBAJpQMdDco2ntm139QWNQ3AEAmlH3/o7GTUHU1dqLi21Bw1DcAQA0d17WO13ub6DarrgDADSr+3utM3dFEDWpbA8EDUZxBwBoUkM553/XZnhoo9Fae7AzuerCAAA0qWq/5h7e6daWRltsH/h8aNmFAQBoYjf2jjHMeRNTCMfm5xpuqT3T4boAADS51vxe9StlJfEmhsda5iy1AwCQhtX9Jrp0ThKvcXq3sNRvqR0AgLRMLO11wL4bkvjD7zfjW41V2gcvFJddFgCAI6V3e/9A93njMq9ytnvLUjsAAOlbG9wfl5mQxO9+sRnPm2oHAKAhHLu5VwnndiXxsvX2xintfV2FdUvtAABHWceJvXcx5TOSOGitQTak5m6e37zucgAA8Pj43o5Hzf2AK23pV/atz+erxyy0AwDwi+xQXxAMmJb5P3fSXG/P3+wqFadVdgAADhhe6Qvah+XwG9+m0dd3FrbHh6ZXz4ofAIBX6L0/923BsZC/Wk3ytJibXaXClfXrvWIHAOD1spmy4v6r+UQa+2JLoVpxFicAANTqQtwnxYwWpjtPyxkAAOqyHV9pH1yav2E/AQAARKH3eDzDMQvdj50VAwAAkVkeiHw8ZuNERmkHAIBoFSJt7SPloSmZAgBA5Drao5uPKa7KEwAA4jEUyXzMcfMxAAAQp46ROkt726PzY46PAQCAmI3XtdJeqnqzEgAAJGAqV1tpz18Yz/SKDwAAEtIVurOfWThRvS44AADfkIQxAAAgAElEQVRI0liIyv5WeX6z1XAMAAAkLxtie+qWY9oBACAlkyGW3JfEBQAA6bjeFqK5e8kSAACkZClEcW8RFwAApGM6RHHv75QXAACkIrsTormX5QUAAOkIs+QeZOQFAADpCDPlvuV9qQAAkI47/fanAgBA41sJMyyzJi8AAEhFdiPMyTLrAgMAgFSKeyUXormPLEsMAABSMRlmWGZjWGAAAJCGjpthmvuM5g4AAKnY7dfcAQCg8RWCUM3dce4AAJCG7Eyo5r50VmQAAJCCznyo5r6zLDIAAEhBNVRxD0YqIgMAgBScD9fcB26IDAAAktexEa6558azQgMAgMSFHHMPgi5bVAEAIHnVtpDN/dEdoQEAQOJOhCzuwcAVoQEAQNKyC2Gbe1A2LgMAAEk7uxW6uc+1ig0AABJ2bCB0c8+tOF0GAAASNpYL3dyDRXtUAQAgYd3hi3swWLDoDgAAySrV0NwtugMAQMJqOFpmb9F9pUN0AACQoN6NWpp78GhddAAAkKCJRzU196B8TnYAAJCcqfbamnu+aJMqAAAkp3OktuYezKwKD9IzPLVaqaxnMplK5djysDxi1nHueqXS+nPcjyuVzgn7fABIx2pfjc09V+qVHiRrolItlMozW/mD/459Owvb45sVDT5ap5dvFCfLM3MH31c3OLLxc95DmU4VHoBEVWpt7kH7tPQgGdnO6cLoxuvfdzzy7fzYlLiiSHx3qGVj8LULGO0Lk5sVixgAJOXOmVqbe3DBoe4Qe4O8c6U0MxDqO/X2FfvH64q80r0QJvHco9Fiq/YOQBI622tu7v0lP81DfDoqxXK+pv/NnfHKafnV1NpbSzUtZuR2WjaXxQdA3Jbfqrm5B2c2tQOIpbSvj8/0B3V4a0WPDOv0+na+nszbt6sTUgQgVucW63hSLTlfBqJ2Pdysxiu0LVXtngxzJ1yZiyD0jcmM1AGIUcdoHc+pXIslJohOdn1yK4jKmRX/nm9od3QwqtTz5U2xk4Iv3nnn/VNf9+x5u3n1uNBN6WmEn5F7RyGw+7k6nlIja+ZlIBK9Y6P5IFIDk3aqvoHKQrSx52a6He9DzO79t+f595efPPjh40t/mn3v6lc/HQ2XGvFaXLzW888PT/5467t3f/Zxw9n7q767dfmDF8+/OfVlg36c34vwM/L+kbgBTNfVFhZ33UKhXtmx8kAQvcHJs7L9Y8cWYsi9bbHbdybi6Iinnn5/6+Hd2U8PlJXPFPfkfdnz4eW/fDT7r8MU4Fe37z588uz5fy4q7ofc8mJdy0ujfhmGukwV5oKY5Aumrv/ARCkXU/C5C9WsfImusv/jxZO/3/7kp6OtQYr7tafPHlz662EO8pPZfz950XNPcT+8Okr1VYOiBxTUbH0hrvK479G6iF8hW8zHmXx70QnvROCLr0/+MHvUK3uDFPd33v7x3btXmyXOz25/9N3JnouK++E0Vt/za+OxeyvUJDMTxKzNj2K/b3Ux7uj7xo0qUZeL39y69KnC3gjF/WLPs4ezzTiT9NXdBy9OKe6H0J2d+n4WbvF8gvBajwcJOJOR9EuyK/0JRJ/vNqpErU598PFVZb0Rivu150/uNvcG4KuXbj3/m+J+yPS21Pl8GnKXhXCmRtuCRLSV1MeD2S8lE32wVRU2Nfj61qyi3gjF/dTJh+8djXQ/+/P/2DsbR6i2NQ5PKjFqHHJ8ZURGKJR8cwqhzBAS+qCa6jD5KMRFJ6XdX37vPd26nfIxa/bae6291vP8B35j7fXsd7/rXYvbaubOIO6Z8sTlVIuJcR61AAIl39qY4xunJwn8R7qj/mVfwIQZwNoDKe6J4v0luxJuLltfiCPuwWFq1eXUaA6pAqTN5ITjJxW0y/yfy5cK/cw+eofIIX32sHYtxH3v85CFR4J7vnx5v7JzBnEPCm7bZZyb+TxzAdLietTxl0q62b4/6Rp9zt55QasSpEeyeKgHQVcv7jNzZTYH3fw8NYq4BwS37TKxWm5SBdCu5PuVIlbn31yb8D/7MdplIA1KcjiNqoG4763Pk3Xz0EXf6u6Iuyuezbpt52S8DMBxRBodFWTTzPYfOmdVZD8wRfJwNInUILqoXtyXU2UE/ZXpmo/9iHsAKK1zuz/l8vwFONrb7zpqaMTcQ5Pn1GRfcZLs4QhG5yi2qxf3eFYNV139yEjODOIeANy2yxTeQA4AjvL2AsfB3FXV25+qyr6CmjscSskFfFG9uC8P0yLz62nVoWLPy+6Iu2vG3X5JvkU7J8ChhHsddTRZbu6d59RlX8HhfTi4zLv9HD9UL+4zOdMkfKC6L332eLw74u4e19Nl6h/xKAY4hNuOStqtzv7KrMrsV6/w3w+/sktPtQbivlHONJ/DaVv8hLjrzoOrtMsAeML1PKXi7py3OPvSm2qzv8tzEX5mYQgtVC/u/ArHVd2bV6oQd81pee22XaaVBzLAr4xXq3VHp/C6tdlfblScvXOJBQD/YO0tdV714r67SbTH05zjWdUdcZe0xTW4vI69voNnMsDPhCdUu6NTbe0hyfvKs6/kgCr8wPI+2q5e3NfKCTY9prc8muyOuMvi2WOXW9RDHssAP1HrqOeppZctPChUn/1jrlCFb8QvMgBSvbh/WuHlKX3ep/oRd62JFLnc57LZowD+QWe1BuLu9FqZfX5Uh+zPswjgf4VeRsmoF/f+FC9PYszvIu56c6re3R51k7mQAD/ywtGCBgujD49pEX2Uu6XhvyS2GNyuXtw3+shU9JRqz8oo4q41rS4Pc9W/4fkM8J3xQj3EPWZhq3WRHtE7N1gGEAqVcNOPenFP5NAlkwkjvyPuenPd3WDIygYiBPhGoyby6Dy2bi7hI03emZxqBm5BPMVVP+rFPWuJQDOkXPJ8GcRdMtdc3saUzeRigK9M6iKPjvPKsuhLn2oT/X0Wgu0sv0X9lIt78h7ldhdF92LEXW+6B9zdOcJtgQB/U6SNPDqxfLuib9cn+gFqGZazQaVXvbjvDZKmK+4lEXe9i1Xuxsu8nCRCgFAoclUfe3RuWRV9R6FG0V9nKVjNvziVql7cd9oI0yWDe4i73vx52s0+dZW7mABCoS7HQR+VoMlEmW8fIVkKFhOfQ/mUi3t8nSjd07aNuGu+8dW6mYEc6yJBgF6txP1cqT3JP9Qq+UomQtpL/wrCp1zcEx9IUgbNw4i75lyrc/GxOY8RaGA9kWqt9NG5ZE3yV67qlfwdFoOtnBlC95SL+28Mb5dFThxx15yp1y62qiZuUQXL6dbLHi26Cui2Zsk3shgsJVGG6ykX9xnOBsvjQxJx151TL12chWO4DNjNH5rpo3PbkuBbqnV7ZaKMYam3P8f0lIv7wggxSuR5AnHXnUhDRcab1WnuHQGrWdVN3KtbeGNSA8f1raS/HM9TLu4LjJORS9kZxF17WttjmW5Wq53EB/ZyLU87fyyyIvjOSu2Cr2U52OjtXLukXtzxdulsSqi5I+6eq3tRpup+9STpgbV0a6ePTtSK/rU6/YKnyd1C4syTUS/ueLue3TKIuw8VrLoMS1jRXMIDW7mtnz86522oNMT0y32A5WAfzG9XL+5VZ4nQA8r7EfcgMJmd2WzIWDfZgaUUaCjuAxacktTxhclhkrt1FPcgeKrFfXSeBD0hB3EPBs8aM1L3SiYYg6Wc0FEgzb8arbRCx9w5nWobe/RoKBf3JMM4vcLtTUyIu1/k12XyCTqPY1lgJeFKHQVyzPjca3WMnSuYbCM5iNwpF/d98vOKnm3EPSi0ZHJMtRBzBytfdLUUSONLv2EtP3Q4XCVtGYs0yigX93fE5x0jVYh7YGi9EaXmDpAGD/QU9ybDY7+uZ+yMlbGLDbxdubiXNBOfhwwmEffgcKW2XnjTukRsYB0P9TTISsNvV7ipZ+wTLAibSHIoUrm4J+Z5efKULcQ9SJQ2PBXdtV6RGtjGKz0N0vCmjQ5NU3/JgrAJJkGqF/ccwvO4zT0LcQ8U4e4xwW3rPqGBZbRrqpAVpSan3qhr6iwIi6iaRutUi/s22XnNkot7mBB3JeQWiN3nXkRkYBdNmiqk88Tg0DsrNQ29MMyKsIcPSJ1qcU8skZ3nLCLugWOqqZIP9ACHcVdXcX/MZw4FtLIirGGG5mrl4r5FdD40yywg7gGsbrVXc9k6wMHc0tYhc43N/EpU29A7WREU3MEvcV9joowflMUR9yDukwIjZvIayAss4qa2DtlrbObntc3cyWdFUHAHv8S9nOR84S/EPZBEnqym3eXZRVxgD2PaOmShqRIZPqevuD9jRVBwB5/EfYPgfDqfmkTcA7pZdqdbWqzsJi2whll9JbLd0Mi79I3c+ZMVQcEd/BH3+CDB+cRnxD2w5KZ5Di/2iKzAFlYlWl+FXImMGjoRUvJHjjyZsb9hRVjCop/eNL1UNnQhZ334d1PZzuQn+IhQ+8X7DEvuiLsOnGwqTEsYOogKLOGEzEuTJJd/zTxvkis5pYLTnAgGUZLv/fD1vqGVuXfba8vkfRCbatpGNj/sr6d2PmZllZTMVPnPXknJQtbuX6m5ezWb7337q1OIe5CZSkvdK6ZIChB34T6Lp3KV9OVlExPvlSzujxB3EKbYW09qLstJ7VbFyfkI/O5w7+lbGS4uSWiVQWLt49wHP2bZL/Uj7oFm/EUag93rmYoGiLsoJ2slO+kpAwPPL5Sb0ekQ4g7CeDjP5GxNaq2fhI/lrY/S3lY+t3smFNL0TWp5e2vQ6yMXmQ2WQdz1YfKP49V99go5AeIuKO6lkrvc7xoYeJ3kl5s7iDsI88mrAeKDcyWkmxa/+TbDfX5xN6l9HMvFF9q8DOE54h58dc8+tur1mru/AXEXFPfQbcnnLseNy/tatdyI6iOIOwjz2RM5GllcI9p0WfeppX19JiiJJIsvTHsXREYxIO568awx75gd7AUhAeIuKO4tMblaWmdc3pckF9zPhxB3EGbIC20fThBs2vSf9cHap2t2g3XOYHTYs4b3RcTdAMIdBcdsYa8ICRB3MXEPNcnV0mrTWtYiA/IDQtxBkIT8ymbPPbRdhF0fGtu3RoOXS7zYo+n2Z/sRdyPIPfpKprw7RASIu5i4T+XJFdNaw+J+4sElVYg7CLItvyNjgVSF2Pda20fmAjqFM74z70kgWYi7IXQdefd4jE0MEHcxcQ+9lium5ww7a/JYbjyFk4g7iCP99qXNUUIVon/E43mc984EN5x4yotzqvuIuylEaqNHjXMfJyFA3IXE/ZTkknK3UWnLTqcxhLiDOH2yR3bQJiOIx50ymwGf7fPpgwefIDJo90fcNaXlxRHf9lcZCgmIu5C4y64p3zIq7QLJ4v4GcYcMtEiyEvWdIVNBFr3U9ulU8K++2pFfdM+gmwtx15bc2SNuE79MPoC4i4i77C7ukwaFPS758qWJEOIO4khucZ+eIVJR5j30djPOG+zJ/iz0ZQ5xN4hwuPbw0cqXyAcQdxHHjtTLldNsg8LO9qSPCHEHMYblCtE7EhWlykNvv2BI31KiRnb/EOJuFpO3Dj389YB0AHEXKY5LnlQeazUma9mXL50II+6QAXKNaDBOoqJc9M7b1435OfpzJB/YFX+jQdy15nLDYVtqNJ90AHEXEHfZemrOV6/7kgvuDSHEHTJAbp9GFoEK49kwyJ5hg1KKSz4JIP6firhrzqFF99lSwgHEXaAdvU6untZHDIk6clVuMNFSxB0yINEj04bKCFScPq+83bC2JbnmLv5Sg7jrzmFF97xGsgHEXUDc8yUfwewyJOqHkgvuN0KIO2TAglQb+otAFb86uTt/qTXxtzLTKUfcDSR/wo7LGwE8FfdQr1xBvWlI1LNyY6lsQdwhE3ZkylBbkkCF2fDI21eMO26QGJQYz1nE3UTCtbEDN8hTRAOIe/ri3iG5tNxhRNIPJKfyfdwO4g5CfJbqiuQpzjuPrl0y8CVqT+Y8d+H7BhD3QDA+duBcC8wdEHeBketjchW1yYikX8sNJe8Z4g7/Zu9e2Jq48jiOn1W22iBhTUFjJSlYCPe7EEFQaVW8UFFURCripVixWi91t3Wt2skr77P77POsWjUzk99kzjn5ft/AkL86fjKcOSdW0oXDr5hn9L5L5tylTr7kiI9gAu5ulJnIIXcC7rXBfSyhRSEut9KsHcqiAe4Uq4PpbrFH5mQicP/Dy1mdFQ6rHbj72lofcifgXhPcMxvJvIbpcsPilTJrwJ3itZnuoTZkthNZKOPpfvq/j8hG9By4e9voEHIn4F4L3E2PFqmD7u/JOt6tHclqCbhTvJTbuD9hnNE7MZIE3Pf7ehCW7hymg8Dd49a7kTsB9xrgnu/QMnXd+Tl/I37gftoAd4rXFU5fSrd/JOH2L70d12vZX9hN4O5zN1eROwH3+HA3bVqmXnd9zOpvMm+fSgXcKUpnlZuIP2Ce0dtKAu5P/Z2X7JH7NnD3unwvcifgHh/u5aIWqq6Dsl/8wP2uAe4Ur1vKXdwZZ4z2JeD2TY/ntV/2KjVw97yxAnIn4B4X7up3MR0/v7j0UDuOrlHgTjHbJcTINuOMUXsCcP/K54EdUE0p6h5IwN21Li4hdwLuceEu3v0wV3Z6yjPiB+5TBrhTzM4LMXKDccbolN7tI16vWXqWFp6Bu3Nl2pqROwH3eHBXnzfU5vSUl7XDyLUCd4pbpxAjxxlnjJ7o4X6Sv7Jhegzc/W+mgNwJuMeD+2WtVQsu7wg5HSS5cAi4U5SuAveUS+Dg1B/9ntjxlI5OBe4uVl5C7gTcY8HdrGqx2u/wkIfEp6Y+Au4Uu8fAPeV26+G+5ffE7qW0eylwd7K/LpdB7gTcQ8H9mhard0ruPgAQb7Ezb4A7xW4/cE+5N/ol7rf8ntgr0Zx+A+6N0V+WyyB3Au5h4J4d1HLV3X94U+KVMmPAnYC7u/0kh7vvfw6qF6pfAfcGqTyP3Am4R4e7uaTl6l5XRzxQ0A5iIwPcCbi720E53L/2fWRnNHPaB9wbpExmIofcCbhHhvtol3YrlQuOjrhH/MD9/dX+wJ2Ae2PD/TvfR3YcuFPE3j+MqXuNmRBwrwZ3M6cFa6+jX/03Et5fB7gTcG9suD/xfWS/AHeK2vvLZRbyzISAezW4t+a0x4UOODnhI+IH7hMGuBNwB+5vdcr3kW0Cd4pcdqrZo9NgiOoCd3NUS9YeJye8pB1CcRy4E3AH7m/3zPeRfQncKUbv7i5TvMhECLhXg/vnyb6V6UTqw5duG+BOwB24v91XwB240wd6d7lMLwMh4F4N7uqnzTMODlj8W4fmFeBOwB24A3fgTtV7Z7lM9yQDIeBeDe7i9d333ZvvRe06/2DRAHcC7sAduAN3CtPYW9vbHWIcBNyrwV29o8qKc/PtFa+UaQLuBNyBO3AH7hSulZb/byyTYRwE3KvAXb2H+Zxr41UfvrRaAu4E3IE7cAfuFLLx604vtyWqM9zzHVK3OrdE7a74gfu6Ae4E3IE7cAfuFLbR+U+sNSUC7u/VpoXrXbemm13Qfvy+LHAn4A7cgTtwp/Dll10/gJ2ojnAvF6VydWyJ2umgDt9bgDsBd+AO3IE7fVTux9gRkoB7WLibYS1dx5yarng7zK5R4E7AHbgDd+BO0eR+3+kD2InqCveVZqldl10a7pr4gfuHHxYAdwLuwB24A3f6eNm9Lh/ATlRXuJtjWrxOOzTcvdqPnmsF7gTcgTtwB+4UWe5D7h7ATlRnuF/W6nXYndleEB++NGSAOwF34A7cgTtFrjT13//kTjMJAu7V4F5aleq1OO7MbOfEK2UeAXcC7sAduAN3ilP/f/bKWMgyCALuVeBurmn5esmV0Y52aT/4vAHuBNyBO3AH7hSrRwsuEYIoPbhnB6V+HXTl+/Il8QP3MeBOwB24A3fgTjHLTxSD3DRzIOBeBe5qwTqyRE38fSVoyQB3Au7AHbgDd4rdzqM5jk8l4F4V7pPdUsEuuTHZdfED94/uYgXcHWm9TVcTcAfuwB24U/QuXmMGBNyrwV39luYjFwYrfic3KOQdgPv6MV1HvPu3ptwdtIZlmsAduAN34E5EwP0TcBfvizjkwmCbxA/cvzEOwL1f+KN8AdyBO3AH7sCdiKjucBefRFQsOzDYRa3bP7ELpkVwnwHuwJ2AO3AH7kTkNtw/r9fTZ2taadZ+5NvGBbivAXfgTsAduAN3InIb7mZJqtiOvPVzvS1eKbPTCbhPA/c6wX0CuAN34A7ciQi4J4TLI1rGWv9W+Lh2I53gU/tXWQT3FeAO3Am4A3fgTkSOwz3TInXsnZLlY50QP3BvcgPurcAduBNwB+7AnYgch7vp0UJ2ze6p5ju0H3e15Abcy8AduBNwB+7AnYhch/tAQSrZo3ZPtV/8wH3duAH3SeAO3Am4A3fgTkSuw91MSSWba7V5qKWHWrf3ZR2B+yhwrxPca9hYSQn3G9xBgTtwB+5E5CPcy0WpZadsHuqM+IH7IeMI3AeAe2PBfZs7KHAH7sCdiHyEuxmWWrYwYPFQl7Vu7550Be554N5YcH/BHRS4A3fgTkRewn2n9kiifntnKv6kQa8B7sDdSrjP3uIWCtyBO3AnIh/hbo5JNbuRsXam2t8tVF3PbxHcs8C9seBeecwtFLgDd+BORF7CXbzy+7KtIxWv5q+6g45FcM8A9zrBvc0SuP/ILRS4A3fgTkRewr10R+rZRVtH2iZ+NfWRO3A3zcC9seB+kFsocAfuwJ2IvIS7uSb1bPNNOyeqPnxpvtoFbYJ7Drg3FtzZVga4A3fgTkSewj07KBXtnJ0TFZ8RG4y5BPcicK8P3GvYDlUK98p57qHAHbgDdyLyEu7mknaXxFEbB5rZ0Lq9pepLuDbBvRu4NxjcX3EPBe7AHbgTkZ9wH+2SmtZK2o2JH7j3VL2iTXDvAu4NBvfd3EOBO3AH7kTkJ9zNnNS0CzbuCDmvdXsh7xTcC8Dderg/lpJxz1luosAduAN3IvIT7hdyUtWO2TfPafED9xD7dQN34B6lTq0Zt7iJAnfgDtyJyE+4S+0SBMv2zXNI6/Zi2S24dwB36+H+WmvGe9xEgTtwB+5E5Cnc17Su3WnbOC9qf6UQDIe4pk1wHwTu1sP9nNaMh89xFwXuwB24E5GfcDdLUtfetm2cU0H9v5nYBPc+4F4fuPfW8HOc0aLxGXdR4A7cgTsReQr3I9qVJON2TXOgoHX7/TAXtQnuC8Ddfrgf16Lxxgluo8AduAN3IvIT7pkWqWwP2TXNL8QP3JuAO3CXw/1nLRpneeQO3IE7cCciT+Eutm1f1qZhZha0br9Tcg3uG8Ddfrg/EavxBavcgTtwB+5E5CncxatJjtg0zNPiB+7roa5qE9xbgLv9cP9VzUY2lgHuwB24E5GncBe/v7lk0zC1b94Gg/lQVwXuwD1Sv6vZOLuDGylwB+7AnYj8hHu5KNXttD2zFO91GXYBP3BvQLjP1fKD7FG7cc957qTAHbgDdyLyEu7iM4qG7Zml9nSpoHsSuAP3JOCuh+Mvt7iVAnfgDtyJyEu4/6DdEbJsyyhbxYcvhV0Nwa4ywD1a/5TDsfLyLPdS4A7cgTsR+Qh3syz17YQto5zTuj3XWgp3XeAO3KP1YEQv9zcnuJkCd+AO3InIR7jPSIHbkbdjkqNdWrgfDXth4A7cI3ZSD/fKSTaFBO7AHbgTkY9wLz1MYdPExDskfjU1tKGBewPC/bOafpL2BOBe+RaZAHfgDtyJyEO4m36pcK9bMchsn9btfw99ZeAO3CN27nACcJ893M79FLgDd+BORP7BPTsoNe6aDYNcFz9wHwPuwD0puJvdlUR6+Zo7KnAH7sCdiHyDu5lIZzV4kl3Xur0lA9yBe2JwfzybjNyvPNnFPRW4A3fgTkSewX2yW7v/SvpzbBI/cO8Jf2ngDtwj93MloV58z2FMwB24A3ci8gvu5jOpcqfSn+Oi1u2FCFvlAPcGhPvtGn+WrUpijfy0xabuwB24A3ci8gnuN3NpMTeZbjZr4d4W4drAHbinJqEPt33vKXYH7sAduBORN3CXIiYI+tMeo/Y3CNGOgwXuwD16V0cqiXb45KmtE9xfgTtwB+5E5AXc16TQ/Vsp3Slq1+wHwXCUiwN34B6j3ZXEu3LgzR+/dd7iLgvcgTtwJyLH4W6WpNJtSneK2l1yguAHV+HeB9xdgfuDF4nD/X9b1+w58HL381PPft23Y8eOrf2JdrWz8/WuXbaf4QrcgTsRkXNwPy2V7mKqQxTvSx/cj3R14A7c4/TvSgrN1ucyZ7a/3Xz55t737f/ab+EmN8AduBMROQf3zIKSus0X0hxiv/iB+2XgDtwTh3uy76da0+zI9ubXz9ufWgR44A7ciYicg7v5k707YYriWuMw3hIUHLxjJJFFgQJk31E2cUVABZRNCCig4wIIuCAaMYKJwycPLtcr5Bqd7n93n+7zPF/AN+9UpX7VnD79i9S6tSHusOaB1u0PMjuxD9yBu6v+/GPHpjqKT85tTptw2w1wB+5ERNGDe0OpErsVDeHt8Kz4gftMZv88cAfu7nrdu2NdLZfWlhdTwB24A3ciAu6Zwd3plGq3OrwdXtS6vTHDW+mBO3B32dKOnbX039wM8egMcAfuREQRhHt3mZK7fYmwVjgp/vjSRIb/PnAH7i67PGCp3D+8JHvk1PFp4A7cgTsRAfcfrUnq3bNhrbBZ6/aqM8AduH+vQ5qRVud3rG4l910Id0cCd+BORBRFuHdJwXsxpA1q/3CQTp/PdADgDtxdN319x/KmBpbLgTtwB+5EBNy/35hUvD+Fs8ErWrfnH40y3BuBe7Tg7ryY2qFLrwqBO3AH7kQE3L+T9jqWQ6EssKhEC/dzGU8A3IG7h7JagPsHu89tA3fgDtyJCLj/WzVPQj0cLqlafBdk5nQG7sDdS5vI/dP7qi+XV4E7cAfuRATcv532k6OVIewvsaB1+8HMRwDuwN1TBcj9800zLQMFQXygCbgDdyKiaNex+uAAACAASURBVMK9qFGJ3rpk8PtrEz9w7wHuwD3oc2HvOOf+pflB/x+7A3fgTkQUTbg7p8NWr9cuaN3u5jZ64A7cvVXz4jpi/1LLyUXgDtyBOxEB9/9Xe5WSvRcCX1+X+IG7m++/Anfg7rXpFcD+VcVvfT0xA9yBOxFRROHuHJK6tyvo9Wm/IZUubQDuwD2MK5T+LIbre07MbKSAO3AH7kQE3Pc3mq+Eb3PA21N/fOlXN0MAd+DuvdQaWt/TkUHfvqkK3IE7EVFU4e5cU8K3rD3Y7XVq3V7WDdyBe1gfLVjmcpm9/fHep6fuwB24ExFFFu6zUvqeDnR5DaVauLv7gwFwB+6SCufB+j66D/pCd+AO3ImIIgt3qTvTjUVBLu8X8aupjyIP9xLgHl24OzmnsPq+q91XNn14TRW4A3cioujC/arUvncC3F3iP1q3X3Q3BnAH7qp+517I/d0rBO7AHbgTEXD/UrJPid/bAe6uR/zA/RZwB+7hwn1oZAuq73/qvjYC3IE7cCci4P7fHkr1ezi43d3Quv1Awt0YwB24C+nOQ/d/dH1De14GuAN3IqIIw137imdTYKs7LH7gPuNyDuAO3JXlLPVi9f3nZbaBO3AH7kQE3D8lvVQxfzyo1Z3Tut31e7XAHbhrW+yH6vuaei986A7cgTsRUZThPi79CNOvAW3uaL4W7hNuBwHuwF3b0NDvR7D63oPuOy91D92BO3AnIooy3J0mJYBLA7oRslbr9qozwB24mwH33YbnOtD63jo2gTtwB+5EBNx365ISuD6QxbVWaOF+3vUkwB24+9Dq+hRY39taCrgDd+BORMDdcS4oCfygJojFVWrdnnc3FnAvBe5xgbvjjCxB9731a47LAHfgTkQUbbi3SRGcHcDeknVauB9zPwpwB+5+PXWf427IvcdlXgN34A7ciQi41zwxBME/3B3xXZAexGwU3POAe4zg7jjD71fg+le1bAB34A7cich6uDv10mMno/7v7bbW7Qc9jMITd+DuY0OvB7jX/auWvN8LCdyBOxFRxOFeVKJkcK3va8sWP3DvAe7A3Uy47/Y8lytm/tfWZeAO3IE7EVkOd+e0ksEVDX6v7ZrW7X0J4A7cjYW746QKeOz+pRMp4A7cgTsRWQ739iolhKt93tqo+ONL1cAduJsM99221+cxu0buwB24ExFFHe7OfSWEFxL+bu2Q1u2lnv5CANyBezAtLvFB1Y8NeJM7cAfuRESRh7v2IfZZX5d2pkoL905P0wB34B5UQy+WeO6+2zNPb6gCd+BORBR5uGuPjT/2dWkTWreXjQN34B4JuH+w+/O5Ys673wTuwB24E5HdcNde1DLp486SjVq4N3sbB7gD94BbLci1/dDMe+AO3IE7EVkNd+3V6Od93NmM+C7IR8AduEcK7h8fvC9v2fxZ1d4C97sD7sCdiCgGcJd+jLTqjH87+03r9osexzEJ7hXA3RK4f8b7mrUfVu0oB+7AHbgTkc1wT/YpOfzQt5XdEj9w9/oiLXAH7iE2UvBqwMpzM8Up4A7cgTsRWQx356Ex3zT61x5r3X7A66Amwb0KuNsG94/lLC7n3puyTO5LwB24A3cishnuDaVKELf5tLHJPC3cZ7wOBNwthPt5A//7Lk9vrp8qtufge+8b4A7cgTsRWQx3p1YJ4jGfNtasdXtjUZzgXgbc7YX751LlWcd3Ad8Rf7nPp4A7cAfuRGQx3MelH2Hq8mVh7eKPL014ngi4A3cDGxqZXny9uTG4nnvyxMv++SPXW+In9zngDtyBOxFZDHenyaDr0b/RFa3bq9pjBfd84A7cv91wjryR8vLywjcbS1v3VoI/Yz+1DdyBO3AnIovh3qU0cVm7D/sqKtHCXfCSoUlwzwPuwD20VqffvJ072R/gIZ0t4A7cgTsRWQx354JZp1D+Wb3W7Xl34wX3NHAH7mE39HPWxs3+QE7m9D4H7sAduBORxXBvk773mZSvq+aJFu7HBDMZBPcEcAfuhjScNfjM/xtuTgF34A7cichiuCekML4qX1eb1u3pWeAO3IG7Xw29WFox8JE7cAfuREQxgbv2KMpB+brGtG6XDGgQ3JPAHbgbZvfCdV+/65oL3IE7cCcii+GuffnzqXhbXeIH7j3AHbgDd5+7/LbfP7h3pIA7cAfuRGQv3LXXLTaJt9WkdXud5BC+QXAvAu7A3cCGsu75JvdN4A7cgTsRWQx36QeO8ruly+ou08JdY1PgDtzpe72b9wnuA8AduAN3IrIY7s59JY2vSJfVqXV7RQNwB+7APZiGl3p9gXvLMHAH7sCdiCyG+6TwIz7pkiLhrhpKtXDv1IxlENwbgDtwN7Ysf95SfQfcgTtwJyKL4e5cU+J4Rriraq3b88djB/dW4A7cze3nS37A/SZwB+7AnYhshnu2UscPamSrSixo4a56cxa4A3f6oXL8eEf1EnAH7sCdiGyGu3PbtE8cfapHfBdkV/zgfga4A3eTGy724RtMGR9yB+7AnYgoTnC/o+TxOdmqbmjdPqaaC7gDd/rBVn04LVMI3IE7cCcim+GerFOeJD8qmuqw+IH72RjCvR24A3ezG9FfC/kWuAN34E5ENsPdqTTw7hbnnNbtBxLAHbgD98Arl98tsw7cgTtwJyKr4d5aIZyqVHNb+ni+Fu71sp/QILh3A3fgbnqFU2I1/wXcgTtwJyKr4e7UKolcbd5I0gvmgTtwpww6LlbzKeAO3IE7EdkNd+nj7QXFoRT1x5dO635C4A7cKZOeadV8ArgDd+BORHbDXXug/JZgoIdat5e1xxLu48AduJtfeYtUzS+BO3AH7kRkOdy7lEq+5n2eZJ8W7oeEP6FBcD8K3IF7BPpLquZ+4A7cgTsRWQ5354Jwrry7nse5qnW7YCLgDtzJZc+BO3AH7kQE3JVwb0sbpZyDWrgfU/6EwB24U2ZdAu7AHbgTEXAXzpVYEA5W1epxmlnxx5dmYwr3UeAO3KPQK+AO3IE7EQF35WDVaYMQeEzr9tvSn9AguN8F7sA9Cr0D7sAduBMRcFcOVlQinKzP242Qo+KPL10F7sAduIfYNnAH7sCdiIC7dLIrSiq3eRrlvNbtdcm4wn0SuAP3KJQC7sAduBMRcJdO1l4lHG3MyyStFVq4i0kK3IE7ZVgLcAfuwJ2IgLu05rQhs01o3V7REFu4/wTcgXsk6gDuwB24ExFwlzaZJ5ztvvs5ko1auHeKf0KD4P4IuAN34A7cgTtwJyIL4e48Fs5W1u56jBmt2/OPAnfgDtyBO3AH7kREsYJ7ttLLla7H+E0L9yb1T2gQ3LuAO3AH7sAduAN3IrIR7lIyu77KJVvr9vRT4A7cgTtwB+7AnYgoZnC/owRzj8shHmvdPib/CQ2C+1PgHhDca/lfF3AH7sCdiIC7UXBP1gmnu+FuBukrsrudBe7AHbgDd+AO3ImI4gZ3pzL8Myr3tW4/kJAvySC4HwbuwB24A3fgDtyJyE64Kz99lOfqrVDpZ6B2q9f/hMAduBNwB+7AnYiAe9hwd2qVN0J2uxjgtNbtpUWxhvsscP+bvXv/a+JK4zg+S3mJBVcpVUCpijcUrREVb/FCbKAyoXRbG7QaXNK6EIGtiFzkIkjzl6/dvlozIZc5k+c5MyGf7891zplnmL7ec3IuwB24A3fgDtwJIQ0K90Mdgv27Zt5+91eycL+m8AiBO3AnwB24A3dCCHAPHe7OXcH+fWU+3N0v6/YajoGqC7g3A3fgDtyBO3AH7oSQRoW75Kzp35+btt73X1m479N4hMAduBPgDtyBOyEEuIcPd+c7wQ4+M238jqzb2/4N3IE7cAfuwB24E0LIHoX7gKScfzZs/F+ycH+k8ggjBPefgDtwB+7AHbgDd0JIw8K99YVgD++atf2ZrNuNvxuAO3AH7sAduAN3QgipG7g75wR72HHIqOnLsm5/0rfX4X4HuAN34A7cgTtwt5bsxFrnydzIm8zIkY3OxW2XihDgHjrcRXdkvGHS8q0TsnD/VucRAnfgToB74CRalALcgbtq3Im348OzMW+d08nN5a05ikOAe5hwdw6HdQDSYVm3XzgI3IE7cAfuUYP7fF4nHxLAHbhrZWFnc71sseND+zfAOwHu4cFddOC733+70ocvvVR6hBGC+wBwB+7Avc7g7rjLSnLfzAJ34K6R3pGhqgWPTeWwOwHuIcFddKr5P/zPMz8n6/ZTV4A7cAfuwD2Cc9xzcRW4x6ekpssAd/J3UjtJnzVPb64y5Z0A91Dg/rhNsJPNflsV3c5Gk1rAHbgT4F5TNmI6Y+5D28AduItmLDNqUvbJXJaaEeBuH+7OqzD2Uh+Qdbvhhjb1CffbwB24A/c6hLvTNKgz5j77HrgDd7ks9Bh/Yq6PpKgbAe7W4S65PXjb9z4bvS8L96/VHiFwB+4EuNeYrnWdMffRaeAO3IUyNxPol6HRHBNmCHC3DXfniX3y3BQ+fOk34A7cgTtwjyrcnd5JHbkPrgJ34C6RRG408Du6SPkIcLcM96eSi0Qv+mrya1m339d7hBGC+7fAHbgD9/qEuzOW1JF7TKB3wJ0s1vRl2cMOMwS424X7wUuC3Tznp8UfOmThPgDcgTtwB+4RhruTGtaRezwD3IF7jUlkalw/fWCNIhLgbhPuzo+C3XzY6qPB87Juf9GqV5sIwf05cLcE9xv8rwu4S8PdSfToyD0/U+scY+De4Omdqv37cSZLHQlwtwj3K6cE+3mnensXj8vCvV/xEQJ34E6Au0Tc8YgexQTcGzsb6fL7Fg2P57aauiZ6e7um1zYyPUfLv9vJXipJgLs9uDv3BPv5oHpzX8q6/Xh3Y8D9KXAH7sC9fuHuOCM6RzHlh2vbkg+4N3LcTJm/ysn9G38cFOD9PcedOHKmzCrW9WmKSYC7Pbgf6rDZ0daHsnC/pvkIgTtwJ8BdKCtKRzElx4A7CZTEfOnDvTLlB9Dd6f0lX/H0O8pJgLs1uDt3BTu6r1pj38q6/cRV4A7cgTtwrwO4O6tpHblP1nIUE3Bv3LSUWjOdHl+o8s9SG6V2SYrvUFAC3K3B/XPBjp69XqWx72Th/ovqI4wQ3PuBO3AH7vUNd2da6SimA13AnRgndbTE2QAzvn6/aSq1onWEkhLgbgvuopg+Xbmpn2Xd3vYYuAN34A7c6wPuzsSs0lFMwTfkA+6NmuzUrvntsWXfCyaahnY/iBxFJcDdFtwlT+W8cNCasD7mke4jBO7AnQB3wWwPKR3FFHiGMXBv0CR2P/mpCZN/n9v1qsdPUlYC3C3BvfWFYFdvV2rpe+HDl5obBu7ngDtwB+724b4jXJ6WKR25x4OOdgL3BnX7ZnEZRzdMv0J3/e3EOiksAe524C6qwvuVGron6/YnfcAduAN34K4H9zfS9cm+VtrQfTnYUUzD9Q/397x15lkuruLRXuNruLnijZLSXVSWAHc7cO+WPBTpZvl2RA97+pjnyo8QuAN30thw3xQvkLtfSe7ziSDdmYqHAnfJyf4LvHXG2Sp+7DPZIJeZLn6Oky3UlgB3K3B3Dgv29XL5Zk7Lur3KfHrgDtyBO3CvLbPyFXLfKMn9WJCjmJbCGXGfFLxvzv4xzvtRoZlWc8U7Qw67VJcAdytwv3XCxtbqBy/Iwv2l9iOMENy/BO7AHbhXy7y8htsVavRW6RDVpTnzviRlmt4ybFZykW4Tb51hskmptc1OqniuVYbyEuBuBe7OZcHOlj3M9Lms209dAe7AHbgD90/5II/hDY0idSodxTRk/pkhNNl8NZzvhUAfDWSmaGb6X7uJro2US+5k52rTRLbUR0DRKtcY09wJcLcD98dtcp291F2mkWeycD+v/ggjBPeXwB24A3dDkEjkg0qVFkeVjmIyne+djYcz6r0keNNveevM0uV96LG/v7rGq84ce51ZTBRdLVE05p5MUGEC3G3A3Xmgv2a0WdbtHYcaCe6ngTtwB+7VsixP4UmVKrkLB3TkPrpo1pFpoXYNm3Uk99ZZ5q0zSsL7c0d8xfEN9/+f9jXf5J3HnkrqbqFKCHAvnZ8Ee/usdBOPZOH+tf4jBO4NCPfD/K+rfuGeUaBwu06deid15J42WyY6EtICUcnVCJu8dUbZ8ZZvxDWD+x8vpnd20pj3b3mwnRoT4G4D7n1PtJEqffjSb8AduAN34K7B0MKsKBVq7qiO3GNGM0eEtnHPm05slpzUNMRbZ5J27wKLzYLh83HfNX+9XXjJLu8lX1NkAtxtwN15qj0Yvk/W7fctPMIIwf1H4A7c6yGJeJhwz2lsj65VqtQxHbmb7OuRigm1ORHiJ1Y6y3tnEO85ArOFOxH5h3t+fbHCi8cGnQS4W4H7wUuC089/2H39q2dl4T4A3IOmH7gDd61s58OE+xEFBq8n1D5y5pXkvt/3XtqrUk1uG977iuT9LvLeGbyhnm+1uGdV8bjJ51Khzl3v1jLHKDMB7jbgLkrDEvi5Juv2F62NBXfJ8j0F7sBdK6uhwn1Lg8F6uw26y0py3/Q7Bi12iqvpoHdTSD8xkPEKC3tN4J4fbS/4l3PrNc2cIgS4B8qVU3L9Pd6tOaBvbdR4j8KdEXfgrhZRii6Ztt6lomDFcu0oHcU05e/k+ZTQioR42vTGeyXvdpj3zv+Au2c6+mwqONzjU4U/7JxkljsB7vbh7tzTtGG/rNuPdwN35rgD98jFnYyHCbI5ldWec4oFexfTkfuQr7krb6WamzW974TkfadTvHl+410V/K7saPzMTsHxS5k345tL6V2vduG/dj0788cZcifA3QrcJbd9+bXPe+2+X2Xh/o2VRxghuH8j2JXze+5dA+5RybSoPo3H7VyVE0lVZ2KsDerIfdbPclGx80uNJzU5s5I3e4Q3z2eynpO/ptyycN/95+NO7BT9vQwV/nPPqU7xcUpNgHvd8afZe+k7sm4/cbXR4C65AuEucAfuSukRxWePcfsqm6MPtmiWrEvrKKbqW3ushThZRfIEpvxR3jyf6ay4qne82jZBi8nyu8d41qeOZqk1Ae428rlgj7/wXvqBLNx/sfMIIwT3c4JdeQjcgbtOFmSnbH8w7sCwBoHjb1SL9l7rKKbVKg27YgPuAfbMfCN6rwu8ewG+l3atIakKdyfhmQY/4/kC9TyRTmpNgLuVfCfX47bvCy/8uE0W7pbqESG4S26z//st4B72LKxGYEEYc1Q+qBB4cFu1amNJHbnHqpwdtRLmk3pXH5vt77HMxSrul1Qd7t6NH5Plv5o5zpYAdztdvq01kfqyrNtfWXqEEYL7gGT9ngN3Rtw18k5YnidNO+CO6BBYWSGpYZ1u50cqtio4zXzD+J4nZH8UYTGkr3gOSpp0A8DdGStYRxL3rApes7akmxDg/nda/ynX5VMXP1331glZuDc3Htw/k6zfF8CdEXeN4bx1YXeuGXdhS0nA73Qrl+1R6vd4haOYJI9/Mj8q0x2V3f+S189Phit/1vmBu+fvxvNfuZ45XytUmwB3K5GcSX3u02W/kXX7k77Gg3u36NreK8AduIsnIT5u/N64D71KAD4wpls7d0ap42ey5ZoU/XkkQHmEp1Uxp9rPB2Lhrkvx9mBwLzye2LuMwrNu4QzlJsDdSi4el+vzp7NNu4/Lwt3aTI8Iwd0RPcDqNHAH7uIRt2csaw5gpc0V80tZ5eqNKB3FNFxmj/N2yRHvwSA3LLyJTi9vYNUsVvmRwhfc18r+EuWZ/jTqUm8C3K3khmCn72iM43/MhYONCPdXkiW81L233jXgHoHkxM2ZDNALrdniAXa4McyK0lFMyZKj4S1DYW/HOC19n1newWrJFBbsbUC4N5VfheJZZc2yAwLc7URyNvpfS0hbX8jC3d5wcZTgLjvd6CVwB+6yORmPhJUzWnCvvNBTIqtpnY5PlphxlJ2SnUof4HYT0j+OfGCIt1o8T709INy3yk9k98yVyVFvAtytpFVy/5fHf15zQNbtZ683JNxlj7A6ewi4A/eIu73UkGB1/arBPb+jXcPpdZ2Or+8a+0xsyrYQaCHiGen73I/cKydb+KPOrBMQ7jvlF22vsUUnAe724e78R7DX9/685H1ZuJ+39wijBPfrHaJVfNS3l9414B5yXJWB7iC/tadi+fodc5+Y1en4YNFRTKljwg0EOv9oQ/w+5xO8ipXSVc3VvuBe+NG3WOHtG6LgBLhbygPpsfGbsm7vsDhWHCW4S56O9Ud+BO7AXWwkb16Fm4EYNqUH9/yy9pDu2JBOx2OefdbnjgpfPh3oSc3Jf2OdSfEyVshKtUMS/MC9JV1hus1SbWvL/8feufY1kWRxuMyoQWTdDMMmEIWJMIt4IaKCYruaYGCWThYva7K6JrPkt2sSgZFLQiCAXMwnX28j3TG37q5TVR3+z8tId7pPpdqnqk+dAgDibgueKRmfM6lv8BXOBwKbUClxf843juenIe4Qdz74BkgqotirJ5cmFPdq0EscSi/RuEM7Msy7Znif3WYRdYKFxBmsiGzCZqu3JO2I+3qzyjF5x+9hAIC4W2f0d36XPdPN2DO+KR4f3p1Ucf+Bbxw/XD7dOX0N4i4TD1Fqtr0dXHKU4k4vhtk9oivPf3UsvcB/Dew6hwlgXu8W5pDo3hDjb0vL2hP3LeN7ktXafy0a22IfEQcQd0G85HjdE3wLTH7kocgmVErc2b84m/vQBMQd4u6Y5UOiAuSavT2P9CVScw+vR2njqXcRhfNLAnhileDcOXu3GicpozPgQadsQKzF2tTW4q4Xk03H1h6UlQEQdxni3n+dp2Zf47z5klDZVEvcf+Is7h96X0LcIe4ONbO8Q6XIJZuXlK/SEssRx5Qq2Wc2zqKFeYITz9sdy6zQ3GgQORr1MfbVWRvi7i2bV0dMfpc55jMtCUHEAcRdFDyTqe9yts0/dZ9ccb81xNvcPzy4CXGv5TYeXW0TLWfoBPkvNi9qg1jcq9rF97RhLRJVxhnYj5Gc1/bm9h6qFtqrIGGmzijb+LvqaiHuldAx7wMBz3ahqxSumt+u5b//iqTDfRgAgLjb4s4v/C58fIavaf5VaBOqJe68l/l+Hgid64i+BnGXwXKBUNurk3YLhOgZanOvhhcOSCO7n6y6ibLd+9RjZNeUOVpGD63tsC3XJSxY2x+gToh7mmXAAwBxJ+NvH1RlsP8ki/tdgoiev9EJWzFB3MXP3lVGwqQ2aH+6Li3AVcMXSRNmNuZd5O1h+4pcprys2YIP/dRIqOWmBJbEXfPXOUPEebEhACDuNnjSq6q4C84/Vkzc2VOKmA5N3XF9X4O4i8W7vUJulvbFOKQJ8dVSkXBOd63HPeLuYGI1S3ybsXTFi+76B6mWK0ctiXu63hmMSfADCDmAuLvTg7g65r2TLe6nicI6/s7lfQ3iLg7fdr4UFqDFDi5xVdRUc3CXTAt9EdeIu9/Bbc6RX50WOSwHsui3n0aDLfObrIj7et3vMNbmjyHkAOIujleKivu44CZUTdzZW6rInrl6z819DeIuAP3AU8wHe6pi5rMrDq60IjBNpJTeiJKEe7nkEm+fd2LF8R0h16gtBfPFSuqEp70HjCHZdibu89v1vyNo+JsIHpoA4i6Qf6gp7qLDoJy4/0CYxPTfvnOjEHdH4u7tOA5Sua3t4tz64WqsJyzSBh29ZdfFzlYnF/PlNf72ng26Q9wXHN3lkdimyiyOdK3PFXb9nkAg8KlgSsd01TbK6AS4zbiHVxqtzl7UMOMOIO5yjHVaSW9/K7oJlRN3Nk4a4Ot/v33/FsTdNm5aUag4W45+D7sSVmhmggtH/o21BD+Djx66oaU0Z0XTsz34sXOhje3KeOW4T+Z9Db8DOe4A4i5L3LtnVBT3FxD3O5fIozz29uzz1+eedbupr0HcO4xFZ2W4oxmJ1z45v5TJDHBBc0FTOa35t4tfuyhx51FVJhnbbJobltFQVQZA3OWIO/9dOnnkcgjP5FBP3NlrcaU3x06defrjjbNmpvrMPB62wOM+y0ydbYcZiHtHEXa69WVZ8g1oJ6etnJbF1Bfxexck7pbquEe+DR8njz9Mh1qNqFHHHUDcpYn7tUH1xP2l8CZUUNzp1qcCiLsqON4rnXBnH2B+N+L4ibYWRhTFiLtuHE+22jk19e3DoiFrvVUiGHZOBRB3eeLOppQTquv9woOgorjfuwS3hrh3Nj1xx92kgiiKoeL8kZZHFMWIO9tpNeKqK+76QIsEGwM+ruNvACDu1vxwSDWhGhbfhCqKO3txHnINce9o9jl0kyDCKIJZDk2VzSCOYsTd+B5qqW1xZ4HjmfpkysKAuQALBBB3sdxQzKcu34S4f+EK5Bri3sks8OglvkkEkp5wikdbBZAsI0bc9wx/r8XbFnfWdfxxqXmSe9F4SVuwQABxF8sbxXzqioQi42qK+4WnsGtCnkPc5RLJcukmc4gkPZySIdKIpBBx3zQesNa+uHt32p1GN6U9pWCBAOIuGLX0sPfPEkKgprizO79BryHunUpyjU8viWJ9KjkcFiN8aStUlhEi7qZiS8X2xd14YDLU7BuMZdzDUVgggLgL5r5SOvVARhMqKu7sn4Pwa4h7h1Lm1UtSSQSTGD+vtkpgGyYR4m7aOnXFgrjrpeN/aLbHQtyY9ISNUwHEXTijv6ukU+dkNKGq4s5e/QLBhrh3JOv8ekkB0aSFY7m/HNLcBYh71hjlJQvibqzZqRUbf8FWq5EBABB3Wq4qZFNnpDShsuLO7vfCsCHuHciezq+T6KuIJyWROMcnWhHxpBd3ZkpJClkQd2Py+qSv4fk3W+XiAABxp6X/ujo2NQFxN/Ma5g5x7zwGeLog86LOICHJANcn2joiSi/uplXABSviHj9OZtJmG46uI8bzr0ECAcRdPMPKyNSpboh7Db/C3CHuHTeHu8y3kwSQ5k4H5wlVfQUhJRf3DeMRJSvizrYNR+426m/G08/rkEAAcRfPNWXWQL6U04QqizubHoJkQ9w7y9sTJOXdTAAAFc9JREFUvDuJX0NUieC+LWYUe2aRi3vWNJJ9b0Xc2azByQ/ayJRBijuAuEuhTxGXGrsAcf+eCZg7xL2TyCT4d+EjhJWGEf7zqVGsSaAWd6N9V6tpS+KeMqxsXa3/0mSp2sa0PAAQd1JuKVK85CdJTai2uLN3l6DZEHfMtzclj8BSsJglaKss5typxd1UaSmjWxF303x63UKgppoySS8cEEDcpXBWCZUavAZxr8sT7MQEce8YFVwm6cP6IULLnwEaK8tizp1Y3JdNZTe3LYl71jChvlOvt5pq1oxAAQHEXQ7PlJhyH5bVhKqLO7vzFKINce8I9rJEnVgfQXC5D7LiRI0VxTCLVtzZnvGYmG5F3Jm/eQZ7znQ9+1BAAHGXxJQCJnW9H+LeiO6+81BtiLv7ydOVoMCcu2u8/SNzCC+puO+bDvJYEncWbCrmptclO1EoIIC4S+KmAoVlrkprQvXFnbGJQbi2Ku93IO42CRcou3G0CxHmyWqWsrV+xh6qlOIe3TGlPOmWxD1kKErTU5stlTNVcMrDAAHEXdpdPJcuUr9dkHbzbhB39p9/Q7Yx4+5qlnK0/VhPI8b86CKeS831IMZ04m4u2VgtWxJ30wZOXTWdLGY8r4bdlwDEXZ6494/JFqlpeU3oCnFn3bexFxNm3N2ceZEg78llTONyIklf5W95FmGmE/eEqZR7zbx5K3HPGvYi1sx5NqZ6NdU9CCCAuMsTd/Zaskc9HIW4t+LVDHwb4u5StHUROyxW0DZ8Xo4EBDRWNI99s8jEvaZAat6SuJsqPmaMSx0Spg6mBSCAAOIuUdxHH0nVqN43EpvQLeLO+vsw6Q5xdyWZDSFdWQ9FEGvnjCyLefJ6lhBrKnE3T7lrW5bE3bQC1SD9+iom3AHEXR1xZ0+kbtA5JbMJXSPujL1BpjvE3YXT7QtxUZ05voJwO2Re3GaYy3sIN5G4G+38U7JMwpK4+yYNvfd4bUpNMaDAKAQQQNxlijt7LNGixvpl3rmLxJ1dGL4M6Ya4uyzxoiKwN+vbaB9HzB6IfPhuY40qkbgfTJoODOpWxF03Knok+/XTnHkNCTZfAhB32eLeL3F/zgmpTegmcWfs3jhqukPcXUQ4Hxfbn32LCLptesq62NbyHiLTnUTca9aRVtetiLtpfeofh/rMmU2TB9A/AHGXLO7snbQE6nG5TegucWfs7kN4N8TdLSyKrxinz6G6jN1Bllf883cD6xJIxF0vmQ8tWBF35jH+LD4vQo3HGp0PAIi7NJ5LcqiZmxB3a5xGqjvE3RXsiJ7A/UIghtDbGWSlpDyAo8UdxJ6/uLM18/hV81sRdzZiODQWZSxb8yJrQIf9AYi7fHHvllNZpveV5CZ0n7iz0elTcG+Iu+okN72S+nS0iFayysCWtEewdxPvSPiLe80uTNXk/tfPK3PfaFw/KDFn4D2LB2tezmDvJQBxV0Hc2b1LMhTqtuwmdKG4fxxl3T8D+4a4q4w2EpLYq715uKAVIn6pM6gH+STagLe4ZwdqZPtn+92pduHIEdwPQNyVEHf2QkKa+6NuiLu9Wff7yHWHuKvLquwpuUAJjdAuMb/0xIfQIUZanMWd+WpykLS0zcZJ1Oae7SFRBkDcFRF3dlW4QJ26Kf2mXSruHzl3AzsyQdyVJJiT/2zWdzNoiHZejQQ9ugoeFlrArDtfcWee2sHQiq0STxu1RTszcagfgLirIu7simB/Gnwi/57dK+6M3Roeg4Tb4X8Qd0Jmc2o8nXU/1L3lQoSVlDL/m8YL2EuVq7iz9HcpUdZfhOnpWv2fTDEAIO7KiHv3j0L1aei0Ak3oZnFn7MKvjzDtDnFXKrddoXVrehnq3pw5pf4/zZaR4MRT3PWL3w3UihbfroRma08R3mIAQNzVEXfW/1RkQZlpFZrQ3eL+kWe3Z2DiEHc1mM+H/s/evf+lceVhHJ/6soqut3oBUYlYo0YTtSZovMRIK7SOhqRR45rABmyLRNkieBdRmf7luybZdhtFUM/Bw8zn/Ut+M+E5SB5mzpyvWp/QVPc8goptV3bYPCyKqOKueRMXfobzOvfDIsEL+5cmD+h9oLgrVdy11uIdCtn4oxJLWPLFXdOqV591UMYp7nduJqbg5ld9v43pnFewqfag4fxemAUTVNy1iO/iPbFAoT9GP7n4rXeyUwMo7moVd631g7V6uxmK+3l3L19z0ccp7ne5R8ZnV/SsCd2dZNVyS0SUW7HTmJN1EVLcL0xO+vRgQyH3xfT9yxYhS+sDxV254q61Fmef+z1FertJivvH6+6j/6KSU9zvxkYyo/IH9fz2DGuUS7hSwRXbCjL/VkRxvzA76dM+9bNonm/Zm9uX7TEb2qb0geKuYHHXqpuL0Jw6VlVZQtMU93Pvf31+n1pOcS/2znZbSv3P6mjgiJXKscXpVM0bJdkd9szcurhrXtulPyuUzH04TMR+fOmx+h6eSwXFXc3irmnj0svfVy+VebGmKu7nd0zKm7/moJk8mijuwiwn0pHSmMeil8V58PFSNapOsN+02zgi8pbFXdNiOb7/1HS3uC/2fIffl+NE/RoHlQ8Ud1WLe++Y5HNKvhlQZwnNVtzPDU80T3PlneJehGvt7enKUvrAnk+3MaHzsnWMKrtkusPfxvetWxV3zZ77U+toJ+4/OClzZLaiZfaW3cRM7t+PnVMNoLirWtw1bWBNYmvq6u9V6KWasbifq6vqGfyFS+8Ud4k7LHZT3tL7zN5Mt7OGF++bnKi8Zl5HNsGi3by4aw3hW//dQ8kS/GUHrFTcNW1C2kzO6XqlXqhZi/vHWyetVT1rLzhuhuIunKct5tb0Ev3Y9qZ2Od39y16m+jF/eiYdcA5R3G+YXuyW0W2kNIDirnhx14YrpFyudTVVq/U6zVzcP/t5qani+fdcfae4C9oRfRxzlPzVt0zWt8yjj/9n0l8C38Mi0ZbAjofifgOO25yrNHk2rwEUd+WLu6a9nxJ/CGTfE9VepQWK+yd1Lyd6fhh89W82v1Pcb35dNhTvzJjl09ubCobZ8f6XQIncQdEz9mDcuUxxv2Zs6Zqb/r3OqAZQ3EuiuGta1bTQutT4qF6912iZ4v6ngZdVE/9sGq149NP029oOF8Wd4l7Q84vhQKfDdNfdIil/GzdRPuuOlNLSNRzG1o9nPRT3glUmb/RtZyOtawDFvVSKu6aNDd4Ttkmmr17FV2i94n7xWvzw8Ei96t5R3O/sKrvP5j9xm/QjXO/V9Mye8vsvho5CTl+3bde/fbAffeOXtMnHV4JfzDaj9thue3hjiOKeX8Z27eq+EYtoAMW9lIq7po08FvKY6ldNA2q+Pop7aSinuBf58dPQTls8uJdqsMblNj1zsJsIqdP+5kKzvuOz9WAsfZLaOv2yUKcl/UNnF0p3BTffpOyxYKDb5wzVLFPcc6UUvNYcstm0l/97YDaPK8R5quqLrK7qu2V3r23+Tdkl/FbgEtbzG2H64r5uM6/dZNLvj7V02lNbC9a8zBbZsvttbaE76H2ejdlwIv7for53knK48x6Ovy/pDkHIJE8wRBYyjjJ7uiXrTyaTAbP8ggqZmTC/XehAWk+8jP94gJJVXdX84oankjRO/zBGgDBLcYfJfbzBsOA4TGd3z7p9OzOhubk5CS15uWZmJxEPJLOd9jKHe/N/tzX0QmdcRI/kNPcj00zH7NX//if+dBoL5+3uy4k0J8kApW5gYvRF1zVHLb1oXmolOVDcAbHcko6i9+yTrQVktuMbuZ+ocK6f0NoBs1zEqP/u9dRKAQeRuFamHn9X30tioLgDEizMSnoOdo9sLfLdL72emPniaYk5Zzx4SGkHzKd1can/9eja1Ku3tbUPXa77hnHf5eqorV15NbU2+rp/YnGAjKBwce8hT5S8+bCc5j4ZJFvr0N2pk4OWbNAf27MfRjcJBABAcQckiLRLelJ2nW3hAACA4g6IowcYxQQAACjuQAnwS2ruPrY5AwAAijsg0J6kUUxOdjsDAACKOyDQyTKjmAAAAMUdUJ+sUUw1DrIFAAAUd0CcNxuSRjEdki0AAKC4A+JIG8V0QLYAAIDiDohTKWsUU5ZsAQAAxR0QJ9LNKCYAAEBxB9Sn2yQ197iXcAEAAMUdENfcg5J2yzCKCQAAUNwBkbYnGcUEAACUsEpxB66gSxvF5CZcAABwHb9T3IErpeYkjWLaIlsAAHANixR34GpbkkYxzaXIFgAAFK6e4g7k0TAjp7kv28kWAAAU7KnI4t5PnjAjvXJH0hDVbcIFAACFekJxB/Kab5N0oHuSbAEAAMUdEEc/k9Tcz7yECwAACsJWGaCg5i5pFNMfxxHCBQAAhRD6cOo78oR5xSSNYtphFBMAAChElcjiPk6eMLGDITnNfeaUbAEAQH7jIov7BHnCzMo8jGICAAB35leRxb2cPGFqjhpJo5iiZAsAAPKZElncq8gT5uYOMYoJAADcke9FFvdF8oTJLcxKGsXUQrYAAOBKQg+VMQYIFGYnaxTTZJBsAQDAVb4V2dtd5Anz87ZLOtA9oBMuAADIbUVkcV8hT1iAvssoJgAAUHS/C90p8xOBwhJkjWLyzZMtAADI4YPQ4l5BoLCGNKOYAABAcQkdm2oYPSQKi9hfltPcQxmyBQAAl6h7K7a4c4w7LMNxxCgmAABQPKNie3tjK5HCMt5syGnunkOyBQAAX1r6h9ji/guRwkKkjWLaI1sAAPB3711ie7sxSKawksowo5gAAEAxvHwguLcb/YQKS4l0SzrQfZ1RTAAA4C+LD0X3dqOeVGEtekBSc497CRcAAHw24RLe29niDuvx/8EoJgAAIFPd40bhvd0YJVdYz56kUUzOTbIFAACaNvbWkGCVYGFBJ4xiAgAAsjx51iijt7vqiBZWFJU0iqnGQbYAAFjbwGuXIcUzsoU1MYoJAABIMNIsqbYbxm+kC4tqmJE0iumAbAEAsKjq8kf3ZNV242vyhWVJG8WUJVsAAKxorO+BIRHTl2BhkQSjmAAAgBDD44MPDam6BkgZFuYNOOXYJlsAAKzj5/G+lUZDtmaCBgAAAG5mpOpd83OXUQxdT4gbAAAAt7dabi1L/aNTK11G8TA1FQAAACI8NCDT/ae8xwAAAEBxVx473AEAAEBxV9+DVt5iAAAAoLgrb5x3GAAAACjuynvOGwwAAAAUd/WfTH3PGwwAAAAUd+X18P4CAAAAxV15H3p5fwEAAIDirrqOEd5ewH/Yu5uVBKIADMMEMmBigrho0yLJxlLJHzCkZmEL20RGuwYMEhcu7P633cYHPc81fIuX4cw5AIBwT9ddWRcAAMI9Xt+4AAAQ7vHGDrgDACDc41UXtgUAgHBPt/NjKgAAwj3eumNZAAAI93Sjd8MCAEC4x1/g/m1XAAAI93RD3Q4AgHCPd/qwKgAAhHu6t4VRAQAg3NM9XdoUAADCPVyrd25SAAAI93DXU4MCAEC4p9u7vh0AAOEef0ymcLwdAADhHv9a6sqYAAAQ7vG3ybgFEgAA4R7/ub22JAAAhHu4bnFvSAAACPf0t1KXZgQAgHAPN7zz5hIAAMI9/cmluTsgAQAQ7unZ3nOXDAAAwj0928uZ/QAAINyzXfnaDgCAcE/X7rsBEgAA4Z6ttZ26SQYAAOEefkam+DQbAACEe/Yjqdva/Y8AAAj3bKd5x2IAABDu0Xa9g7kAACDcs2+RKZu3xgIAgHBPPtde9ZeGAgCAcE929jz1NyoAAMI92XpSP1oIAADCPddNVdYf1gEAgHAPvj5mMjh4GRUAAOGe+yhqVQwaC6MAAEC4h56M2b+Wd80HcwAAQLgHao32x6K/+Z3ZAQAA4d7a/8xXdRz/lC+DTeNz5iQ7AAAAAAAAAAAAAAAAAAAAAAAAAAAAAAAAAAAAAAAAAAAAAAAAAAAAAAAAAAAAAAAAAAAAAAAAAAAAAAAAAAAAAAAAAAAAAAAAAAAAAAAAAAAAAAAAAAAAAAAAAAAAAAAAAAAAAAAAAAAAAAAAAAAAAAAAAAAAAAAAAAAAAAAAAAAAAAAAAAAAAAAAAAAAAAAAAAAAAAAAAAAAAAAAAAAAAAAAAAAAAAAAAAAAAAAAAAAAAAAAAAAAAAAAAAAAAAAAAAAAAAAAAAAAAAAAAAAAAAAAAAAAAAAAAAAAAAAAAAAAAAAAAAAAAAAAAAAAAAAAAAAAAAAAAAAAAAAAAAAAAAAAAAAAAAAAAAAAAAAAAAAAAAAAAAAAAAAAAAAAAAAAAAAAAAAAAAAAAAAAAAAAAAAAAAAAAAAAAAAAAAAAAAAAAAAAAAAAAAAAAAAAAAAAAAAAAAAAAAAAAAAAAAAAAAAAAAAAAMAfe3AgAAAAAADk/9oIqqqqqqqqqqqqqqqqqqqqqqqqqqqqqqqqqqqqqqqqqqqqqqqqqqqqqqqqqqqqqqqqqqqqqqqqqqqqqqqqqqqqqqqqqqqqqqqqqqqqqqqqqqqqqqqqqqqqqqqqqqqqqqqqqqqqqqqqqqqqqqqqqqqqqqqqqqqqqqqqqqqqqqqqqqqqqqqqqqqqqqqqqqqqqqqqqqqqqqqqqqqqqqqqqqqqqqqqqqqqqqqqqqqqqqqqqqqqqqqqqqqqqqqqqqqqqqqqqqqqqqqqqqqqqqqqqqqqqqqqqqqqqqqqqqqqqqqqqqqqqqqqqqqqqqqqqqqqqqqqqqqqqqqqqqqqqqqqqqqqqqqqqqqqqqqqqqqqqqqqqqqqqqqqqqqqqqqqqqqqqqqqqqqqqqqqqqqqqqqqqqqqqqqqqqqqqqqqqqqqqqqqqqqqqqqqqqqqqqqqqqqqqqqqqqqqqqqqqqqqqqqqqqqqqqqqqqqqqqqqqqqqqqqqqqqqqqqqqqqqqqqqqqqqqqqqqqqqqqqqqqqqqqqqqqqqqqqqqqqqqqqqqqqqqqqqqqqqqqqqqqqqqqqqqqqqqqqqqqqqqqqqqqqqqqqqqqqqqqqqqqqqqqqqqqqqqqqqqqqqqqqqqqqqqqqqqqqqqqqqqqqqqqqqqqqqqqqqqqqqqqqqqqqqqqqqqqqqqqqqqirtwSEBAAAAgKD/rx1hBQAAAAAAAAAAAAAAAAAAAAAAAAAAAAAAAAAAAAAAAAAAAAAAAAAAAAAAAAAAAAAAAAAAAAAAAAAAAAAAAAAAAAAAAAAAAAAAAAAAAAAAAAAAAAAAAAAAAAAAAAAAAAAAAAAAAAAAAAAAAAAAAAAAAAAAAAAAAAAAAAAAAAAAAAAAAAAAAAAAAAAAAAAAAAAAAAAAAAAAAAAAAAAAAAAAAAAAAAAAAAAAAAAAAAAAAAAAAAAAAAAAAAAAAAAAAAAAAAAAAAAAAAAAAAAAAAAAAAAAAAAAAAAAAAAAAAAAAAAAAAAAAAAAAAAAAAAAAAAAAAAAAAAAAAAAAAAAAAAAAAAAAAAAAAAAAAAAAAAAAAAAAAAAAAAAAAAAAAAAAAAAAAAAAAAAAAAAAAAAAAAAAAAAYAtVyFEUxY/0ZAAAAABJRU5ErkJggg==;" vertex="1" parent="1">
          <mxGeometry x="606.26" y="-110" width="110" height="73.33" as="geometry" />
        </mxCell>
        <mxCell id="5La-LyKBG8K8z512zvDs-51" style="rounded=1;orthogonalLoop=1;jettySize=auto;html=1;strokeColor=default;strokeWidth=4;endArrow=none;endFill=0;exitX=0;exitY=0.5;exitDx=0;exitDy=0;exitPerimeter=0;entryX=1;entryY=0.5;entryDx=0;entryDy=0;entryPerimeter=0;" edge="1" parent="1" source="5La-LyKBG8K8z512zvDs-25" target="5La-LyKBG8K8z512zvDs-25">
          <mxGeometry relative="1" as="geometry">
            <mxPoint x="707" y="182" as="targetPoint" />
            <mxPoint x="630" y="182" as="sourcePoint" />
            <Array as="points">
              <mxPoint x="560" y="31" />
              <mxPoint x="560" y="-160" />
              <mxPoint x="760" y="-160" />
              <mxPoint x="760" y="31" />
            </Array>
          </mxGeometry>
        </mxCell>
        <mxCell id="5La-LyKBG8K8z512zvDs-61" value="" style="shape=image;verticalLabelPosition=bottom;labelBackgroundColor=default;verticalAlign=top;aspect=fixed;imageAspect=0;image=data:image/png,iVBORw0KGgoAAAANSUhEUgAAAZAAAAGQCAMAAAC3Ycb+AAACvlBMVEX////9/vzY68263KeXyXeGwWJzt0hts0Bssz5utEJ3uU+JwmedzIDA367f7tXY68yl0Yt7u1OEwF+w1pnh79j5/PfB4K+HwWORxnDN5sDC4LB8u1SKw2jT6cbX68vl8d36/fms1ZRutEG63Kbk8dyEwGD0+fC93qrV6si12aDc7dFxtkbs9efz+fBxtUWVyHax15vQ6MPr9Ob+//56u1KUyHO32qLX68ry+O9ttEB/vVmezYK+3qv1+vOHwWSl0YrK5Lvm8t52uE2LxGqw15rS6MXu9umXyXi22qLb7dDx+O6Dv174+/ap04/J5Lvp8+J1uEyTx3Kv1pjU6cjv9ura7M/1+vJvtUOAvluiz4bC4LHk8duAvlqPxW2VyHWo0o7O58G22qH9/v3c7tKr1JLq9ON5ulG12Z/s9eWPxW602Z/W6sq93arw9+t8vFWczH6Zy3yFwGH0+fFwtUTO5sChz4bG4rV2uEz7/fp0t0qYynh4uU+u1paNxGvM5b6326N5ulCay33Z7M7y+O6by36ay3ut1ZR9vFek0Im/3qy426Sm0Yz2+vOIwmXV6smDv19ytkbL5b2t1ZXG4rbo8+BytkeOxWygzoTT6MX2+vT+/v6dzYHt9eh7u1TH47fx9+2UyHTd7tK526SfzoPN5r/i8Nn3+/X5/PjK5bzP58Pj8Nqu1Zf8/ft3uU602J6x15qp05DP58Lv9+uq05F1uEuczH+j0IiCv12Mw2miz4eSx3HE4bOz2J3r9OSn0o3J5Ll+vVj6/PiZynq83and7dN/vVrD4bLn8t+QxW7B36/n8uDp9OLg7tbo8+Ht9unZ7M2+3qy73Ke526V6ulHw9+y73aiWyXbe7dSBvlzS6MSq1JGYynmQxm+Tx3N+vFeezYHF4rTU6cey2J2Cvl3I47jg79es1JOhzoWy2Jy/363mr9GjAAASp0lEQVR4nO3d+aNW0xoH8BN12qdJpTTcVKKUJgkNpEQTRcaoTGkihYqGi0o0pzKLuEKRSpK4l0zdUpQ04Jpn7v0v7jmdc3LO2c/a71rPWms/a5++n1+9e+29nqXzvnvvZz1PXh4AAAAAAAAAAAAAAAAAAAAAAAAAAAAAAAAAAAAAAAAAAAAAAAAAAAAAAAAAAAAAAAAAAAAAAAAAAAAAAAAAeFDlmGOrVsuvHqWooEbNWrXrSE88TMfVrZfmUpRV//gG0rMPTcMTGkmtRrHGTaRDEJSmf5NdjiLNTpSOQjCaN5NejGJVW0hHIggtT5JeiCNanSwdjACc0lp6Gcqq2kY6HtKatJJeg/LqHeW/gU+VXoCY6m2lYyKpnXT4KUfxitSWjj3tNOm4SGkuHXmF9h2kIyOjYyfpyKvUlw6NjM7ScVc7XTo2ErpIRz3JGdLRSV/XM6WDnuQs6fCk72zpmCfrJh2ftHXvIR3yZD2lA5S2c6Qjnsu50hFKVwPpeOfUqZd0jFJ1nnS8c+stHaM09ZGOto7zpaOUnip9pYOt4wLpMKXnQulY6+knHae09JeOtKYzu0pHKiUDpCOta6B0pNIxSDrO2lpdJB2rVFwsHWd9taRjlYam0lE2cRSkmA7Olw6yiUbS4fJviHSMzVwiHS/fLpWOsKGhLaUj5tll0hE2dbl0xPy6Qjq+5q6UjplXAWw7MFVVOmY+hZc5quEq6aj5c/Uw6eByXCMdNn+ulY4tz3DpuPkyQjqyTPkNpSPnib+dayOvu76ZxzyvG6Qj58eNnsI18qYGowqHH3zz6PaezhCNkY6dD6PG+gnWuCpHTjG+lp9TRLcIxs2bW72EqvqEcie5zctJKuUmnol+SmYMqnAaT3c6kyrf29zbvQSqduw8d3g5T1TpNkzX8RKmO+MnmuxnG9CUq9OPmVd3egnTVOJMN3g5U3RX6iHz6m4vQZo2nTiVn3+LUTQi9aB51HKGlxjNpM41/e9ezhU1SztoPt3jJ0b3kCe718/JovtSDppHHTyFaBZ5Nk+/s6LZo1IOmz++9tvSmYVzPJ0tGpdy2Ly531eEbiJP5+tfSNRjbsqB86WnrwilvCDRAykHzhObVMVJD86bN2e+6r+aLcj8BWcvXLR4pMXVRJWidtMS/kPxOc0Pf4+O6qZ4imuyIEtvLPlOfsjiV9iy1KLm0WLu7JeXyRpcQa6qwYI8XOYD47hXFEWP+I1VGh7lzn3ppWWHafEY8RH9BVlU7hNth3IvqhIkMj7OnPoTFX71U7tKtBdkToWP9Ge/TT7JT5TS8yRz4u1iI/WOf0h3Qdo/VfEzK59mXlf0jPsYpanrKt60n40P9Vy8XKbugswjPvUw78KyXpZmEWvS1Z+kxvpH7HO6C0L+WuVWvznOYXhS14aVqljwPDnY6tgHNRek72Dyc8yKj5lOZHyBM+Me9HrkvRj7pOaCEO8VDxvOubpMl6V5iTPfAlVR0HgJOssFYa5I+zUuYiOC1YJCmWwefwSjuSCz16qGjP8V1JHZsjQvc2b7inK4+Mty3S/1dcoxX+VcYlbL0qzfwJhrwh/o+GYf3QXZqB70AcY1ZjWR8TXGVDeph7sk/mndBamR8K6PVbnrdcvQiNjMmOi96uFWEreY2o9O3lCP22YL4zrPtIyNiJnm8xy6RD3cm8Tn9R8u9lEPfJr5dUbRarvYSODMU3EDUmQr9XmDx+8L1UMfy7jSVtlr/PKW+SzPVg7W4W3yAJMXVP9crxz9X+aXGj1tHaCUvWM+R/UXyBWK+ihGr3AbKcuHs95pvmQfozQNNv+qLFDu0F+oOsTsnfoWZV8QThn6jJWlecN8hsq9ru8qDzHNOlH+WuWkcr3sIEyp2WY+v7dVY72nPsY4Deh9xTl6MfYwbKAyvUPF+Jp8VDFU0t5287ysFYqzcB4zZqgszQTz2alu0UcnHcRIlOuiOA9n/8pmJ8FKwwfGc5vxIT3SxsSjOJmLinsdzq6SjxyFy7vt5nOL7xU8LMc+H86CtB9Pn4pTu7bijtNALZliPLOx9Ej/znEYK7d3B32HyPgdEl3sKmR+kU85ktGVDSfnqpfJS7Z+kL7sJ8wvO9rpKmY+fWw+r1X0SLtyHcfMft9NHjbe/LqjfMVXX1AYSYH0/2i583S42xE+IY/j5M4lvL8Jxevms+pbhRpIIymYuyD0335W9ahP3UXOj5WMEjPxtNEi9XMfyN6wQ7/O4OxTaOwscp5wUv27UwOdq3EgfwcV+SDzFca1h16W5iJGv/rbqYEm6+Q88heELjXKqYE2yV3wfOAkcTSnBiJy3eMs9hiSj+LVz5UTbHcYPuf2MCZE/ubdq3WoxYKQrzP0zlrBsJDL0nByasiHpnrFnGx24R5DHUq/Kc5hq8MAOvYsZz5UUZcxeofaLMhS6lDlu8lEp7iMoUstOd3wRlIjaW4UtdqnTj0Z/IwxgYR3a9JYibLUpr0lmttKrBaELCXE60DaxGUU3bmSNZl9xEifax5rV8mBer/Eq9Q5NsyyNFU5c9nSkhhpmebBdgtCPSBgpTEGWpaGV2KGukPTbiVttyBUy3TW12ChEPvrXcOayX5ipJN0D7YsPkPlujEykosE2F9vN28m1G8d7fowlgtyOnHwAd40oj1Og+nA4OWseeQT+/XO1z7ackHqEwc3Z00jilq7Dae9hHS2JI8TQ+kXp7atl0W8zOjO7TlDlDqQxHoKFNGNID7SPtp2QajaPhqvYUhbwkpk3MWcBvF6e/1B7aNtF+Ra4uhzONMo8qrbiNo5kTsLok6FwZtU2wWh/vDzi2l1cBtTK8oifLlsi4/1vv7RtgtScCh+NOsB6WHXOw6qhS+4c+hLJK1dqH+4dRFM4hm8Rbf3mx2Hla0hVe1NC1X0wiCe1gtCfIVZFH0O5qkvs6xOoS+J0QzqcVgvyMPxo5/ibJMu8ZXbuLK1Zs+A+Jmz1iCPyHpBiPyKlf8xn0apQN4dMnJHS42Oj3aoh/7h1gtC7TPlFoksNDSMzFLu45+ILN7ewuBw6wV5izg8XrhOXxhJWhYz+Dw+mskbCesFqUHcXts0yzrecWhZ1nCK/pQ4NT7c1waHWy/IUKKSlk3D3iASS21aDBH7QkySta0XZBiRUsrZJ1KKuq9KHVE2SRuRHWCyiZ9u6GLwN6c68aTAZkGCSIafZXH9lgtCv8o+S38A5wsSQg3Zbyyu/+74cFMNDqeLHxqUvWlPvAu3WhBVZYI02UyASFR+yODwatT1HDJ4xTSNuHGw+VIPYtMhK/unBPEry+g3AtVW+xGD4w8SX8JWDXpC6ND6rcX1E9Upje77qS1+Sw2Opx5ucqpnHXGh6+gyfGlx/cSjk7kmL7VbxbMPV5ic/ztiPuxOFkUWEQOmjd34odAL8eGqGNXliLXfvMioGBlx/lE7zKZQ3gk+Imxok8X1f0+MZ7b1skKpvavNnjwTf2GW5KpWkCiElki8/ORiVGaU4a+2zmV/uX71g9nB78RPr7k1RSGEp4smv2oqyicaSZi2HKlx6uSSI8cY74cgXrruMx2jnBD27jATxot9HB+vn/EgG37c3e/+FV90LjA9sNPk+Ol/Mj59GUGU2mCVhi71c3y8zdzcQXPUtjaDHIu4MN6q32IxA+KFCDt30Nx7xNmt7gsTSpqn6BeLGSwgxmN3ojRGVWC0eKUeRS/6jrWWryxmELuPKNTEJiQmehB5clcavNKPGdbLe7C1TOJPYTlRQ30yozwHC/V/Q1ubAUMpwjjQYg7diPGsniYZoGrNt7MZkPiJIqK78e/Nv1DvmGz6fZvYS5z7e4vxPvAcZ33z+JO4jBiOU1KIgfrRO9jmwUkfz2HWZzENsgcdqzGUMar0YluL8cjXZUKYLRqLUF1Wj7MIi7ZOsY7FefwOuUWC2vfJaN9SgtrUlmf1CFwTdQuU9yt/vB/9RtjQVex51KOGs/gXp43K2NHfABzTY67nEBviVOouRhVjr1KDHxlN5H4ni5QmupKnHF7lmSKLqeH4W050kS2L+H95D670G19zl3OnQqZfjvL9T+QOag6sZsrFwms1uX6a07n8xo+NFiJlkeq2qyuhI6YYdo4vnTJejR0cHVTZtLwP+bdTxIs2ebxqbIXIjh6/s4OjgS67wGj1V4L8CS1Ou8xVRUPI4fh/P3LrR57xYu5wnRJaxkqi2tXqmELdM+dVIboRO0Lfw/HTG6j3niHozn25Q+/zsNkJlGgDsW8qj1+vJfrBZ1Ct5O74QctvSQ7HLzuSjK64kKu/khpZKz0IXesxp0T/E8m7nh2jJIrW29dxx6PSL0PBavhQ6DEiYa5QS4uXw0pv0pfOzwwIYRubEqcnShHyviAvbxujJWoO1Iv0Iuz7HiKDPyDsx6X96fGs0iIpk8hfdIa7GMrKp38hBGMBc15UGZoijJZWSQ4qeoTzHy+HsIktyRruH5kJigHv40aK0vdSxVm0SwVXFH5vyduYM1PWTzfZlptDvTMU5zApsFIe2aknLD2ZU/tGNeA+V9nX1SaqTsFOJ1Z0DQ0KtxRxdJVqxBGG23AUBii/fvl3oEQyangMKimUM1tZKKSjTfpaqT+UF8x+Khq95iWArrGrFpL984pZ7dooMky9+2869/lCtIFsURqeN7gTbKoeswunx+Bf7qXb3x5Wiz0qtZ0hRA3Zb95+Vw/a5gV23MjKdUfotBSlkX3FgnQ3d4obknoC/szdSzOzRcKoFps817mOmz/sdJqaSaNOP5aznbF+YoWe/rw2G0XOcRszr/iPTp9OHPe5Tab3JCOTH20M5v+iLiD2GoVLv+VERURt47LGv6vfPCGKln2eo+beBezrjA64i1YKJlZnT/TWHEOvGa77jP/BnNlr/ARYuoVvwFiNl4vlThnYc3nuBJHG26liWuXx/x2rElfCtd4iF5TaSVNRnVmd1S0AVj2wM+G+4whmR7bDbrENUOrYb3wi3T6Ncwed3Pu82eUzXTqtajy69rqGWsdblQjQWfDA1LSYbo5v9jKmjxl0308nb393yE37t7//dZ3N2kno0y+zWQ9ym1Hg1tlM+E/fV/ecQVeMuE50Ukbg/rSZ8q6ke3Z7e0x+PMct9HpxvrSx2L4eRZMSnmtZ62O1HNEOj5fm02q7aRNVlh1hNX4vg2o5ngmW6dKL/ZS2H8NNHiulypAJH7u9YYll1IZQW4+wW5iVUuSQZQE7X7aU872th/ivo0rNc31NKfrUevaN3PYbGM5sYF/GtLCa3hpyUB3uBkWyIUMDbv5FWYG1hTa0hv/+54jH9rv5cu/f2/5a6HLxWeKk9tXI3fbpHR3HWZWsPqKOg6CIGukkDL/+ZFcpof8v7G305SWkKmWERbPfcnbs52cJrhsyxdFVtCJa8mRNZ0exiPLrsjKbW061ee9RQa7XmVkw3l04opoHHjU8+/PzXO6unq1K0c+U4x1GJIp2LSLr+FDW7pt3p9NzR1N9xik104e6jUrUenGfnO/Lq/y+83bnW0bDKO1uz0Nln+o9/xx44jaqgGZeXvcWl5w+0y4VWOH8lAPnja/KPmMvmLNp9c4buw0asW7dupeO6fbi7o11v13q5n6DQHR/zyhvRTJSNUyxgTeL7B+xBoDogplZc6WD6cB86SA65auOTIpU+7Yzaqx0PG0F0bveIW5ZmmDkzhTOGIvE/xBQXXez7RTpkFqZkclUxWRbpYNqI/QSMxy93Ne+Sk34JWY4+PuPxWWgxAyHj4J9qRggHTlPHpIOLJe7RKTApNUPzzGi63olYZ/IKGGon5zvIIyWDi5HH+moebTWOvM8fSF1w3Nvp3R4zWWoxAwHv8uTkOTiK9nnvDKyZwWBdcNz71vpEJtZJB0v7zZLh9hIva7S8fLvv9JBNkF16q1sRm2QjrK+ELvhuWe5az9NScUaK5Gl0nHWVVc6UinhV5JO1/JAu+G594R0qPX8TzpOqeloVZYmLT2lw5SiRdLB1hFuNzwP2PXv03OWdIxS1UU63LmRLZMrr8el452LopFfpbVXOuA5zMh0iRmOutIhT5btEjMcg4NOZGwtHR4BC6WDniTzJWY4lklHXS1LrUHc+UQ67ErT9GqVVzq7pQOv4qP2Ziaw27n55a9gcPCcFN1zbbV0VCQtkI5+3BfSMZF1q3T8K+ojHRFpKxzULXXnV58tADJizHfSq/CXrcqG0keV2t4KKpl5K2uNvryZ+Ecr6cWIohoDj7oHvAn2bhL+VzL/gN+WPtnTvfYusdXoNGBFJd62xteiaa30HzgWNLvr5WekZx6uzyb8Nmtju9RsXL1iX0fpOQMAAAAAAAAAAAAAAAAAAAAAAAAAAAAAAAAAAAAAAAAAAAAAAAAAAAAAAAAAAAAAAAAAAAAAAAAAAAAAAABUWv8HF/WkH1Nv95EAAAAASUVORK5CYII=;" vertex="1" parent="1">
          <mxGeometry x="606.26" y="390" width="50" height="50" as="geometry" />
        </mxCell>
        <mxCell id="5La-LyKBG8K8z512zvDs-62" value="" style="shape=image;verticalLabelPosition=bottom;labelBackgroundColor=default;verticalAlign=top;aspect=fixed;imageAspect=0;image=data:image/png,iVBORw0KGgoAAAANSUhEUgAAA2wAAAEyCAYAAACGd1P/AAAACXBIWXMAACE3AAAhNwEzWJ96AAAgAElEQVR4nO3dvXIcR7Yg4GLPGNcbyJOjGNBbT0W3HYLeriXSW0/EE5B8AhBPQPIJAJlrEbI2rkXQ6d212HoCQiFH3vR4c53WRkqnR000fvonqyqr6/siEJQKlNCorqrOk+fkyQoAAAAAAAAAAAAAAAAAAAAAAAAAAAAAAAAAAAAAAAAAAAAAAAAAAAAAAAAAAAAAAAAAAAAAAAAAAAAAAAAAAAAAAAAAAAAAAAAAAAAAAAAAAAAAAAAAAAAAAAAAAAAAAAAAAAAAACjMA28IULpRPT6sqqqOr2+rqjqIfz6456VPq6qaVVX1saqqq/Tv8+lkuvK3AAAKJWADijSqx0+rqvquqqqjqqoOM77GFMBdVlX1Y/pzPp1crfwNAIBCCNiAYiwFaU/XyJ7lkjJu76qquphPJzNXAwBQEgEb0KlRPT6IAO0kcyZtUylYu6iq6lTWDQAohYAN6MyoHr+uqupFi9m0dZ0L3ACAEgjYgNZF6eObjjNq6zitquqtUkkAoCsCNqA10e3xLBqJ9EXKsh3Pp5NLVwoA0La/OONAG0b1+HlVVe+rqvpvPTvhqVzz+YOvvzl48PU3/++3X3/518rfAABoiAwb0KhoKpLKH5/vwZmeRrbNXm4AQCsEbEBjIlj7EJtc74tZBG0XrhwAoGlKIoFGjOpxCtI+9aCxyKb+o6qq//ng629+/u3XX2TaAIBGCdiA7KK5yP8psF1/Tk8FbQBA00bOMNCAEvdWa8JZNFMBAGiEgA1owj6tWbuPoA0AaIyADWB3KWjr095yAEBPCNiAJgxxXdf7WLsHAJCNgA1owmm0vx+SgwjahrB2DwBoiS6RQHa//frLvx58/c1/pvb30QY/p6vI4F0tfR008HO28XV6Hb/9+st/uqoAgBxsnA00JvZi+7BDx8iUpUsbVH9MQdp8Ormz1DLWkaWf+Ti13V/5C+15ZmNtACAHARvQqC2Dtsuqqt7tEvREaWIK2k462Lw7BZoP59PJ0MpCAYDMBGxA4zYI2lKgdjqfTi5XvrODyLydtRy4vZ1PJ69WjgIAbEDABrTinqAtZaKOmy4jHNXjl5Fxu+k1NOHRfWWcAAB30SUSaEUELk8ii7bsIsoHG1/zNZ9O3sZraCuIerNyBABgAzJsQOtiv7L0dTWfTq46+PkHUSLZRmOSJ7lLPAGA4RCwAYM1qscpaHve8O9/OZ9OnqwcBQBYg4ANGLRRPX7fQqZNlg0A2Io1bMDQHbewpu1k5QgAwBpk2IDBizV1nxruHvmwi/V6AEC//cX7Bwzdb7/+Mnvw9Tf/VVXVf2/yVPz26y//uXIQAOAOMmwAYVSP0z5xRw2dj9l8Ovlq5SgAwB2sYQP402mD5+JgVI/b2EYAANgjAjaAEJ0cm+zm+N3KEQCAO/z19m/BfhrV4zqaS6SveumX/HbDphOpgcTPS/++GOh3shk02fzQYFnk0+hKCQCwFmvY2EujepwG3IfxtQjEmhqE3+YqvlLL+H9GQCeY64FRPf5Hgx0jH82nk6a3EQAA9oSAjd6L4OwoArPDa1mzEs0iiPsYf04FcWUZ1eOzqqqeN/SiTufTyeuVowAAN1ASSa+M6vEiU/Y4/iw9OLvJ4nf4d8ZvVI+vIgOXgrhLAVznfmwwYHu8cgQA4BYybBQvOuv1OUDbxiKA+zECuFn/foX+io20Pzf0C2jvDwCsTcBGcWKwfBQd9bRB/8MieLuQfWtHw+vYHnofAYB1CNgoQgRpKTj7fkBZtG1No5Oh4K1BDW+i/Ww+nVysHAUAuMYaNjoT69GeC9I2VsfXm1E9XgRv58omeyW9fwI2AOBeAjZaN6rHz5U7ZrMcvKUA4AeZm2yazF7+feUIAMANBGy0IkoeX0RGral1QUOXAuCn0XFykXVTMrm9JjOWhytHAABuMFo9BPmkbFqsBUod914K1lqRgoGTdM5H9fh9dNlkc8p0AYDOybCRXaxNexlr02QSurWcdXtnrVsxmmpmAgDsGV0iySbKHk8a3HCY3aVg7TwFb8ol7zaqx5+bnHCYTyeevwDAvQwY2NmoHh/F+jSld/2yCNymQz8RNxnV499uOJyNgA0AWIcBA1uLjNqZ8q7eS5tyn86nk8uhn4iFmIT4sPKNjARsAMA6NB1hK9Ga/7NgbS/8Hpyk5jARqOC6BgAKIWBjY6N6fBaZNfaLwO1P360cAQDogJIcNjKqx6n74xtnbRCuolTyfEi/dJT6fl75RmZKIgGAdciwsbbIugjWhuP3NYqpW+LA9nJ7sXIEAKAjAjY2oQxymFLg9n4IpZKxh2Ab21LozAkArEXAxlqiyYhNsIdtCGvcUsnvwcrR/GxeDgCsRcDGupSJsbCXgdvSxu9tELABAGsRsHGvGMjWzhTX7Fvg1mbJ708rRwAAbiBgYx1Db/HO3XofuI3q8euWr/OrlSMAADcQsLEOa9dYRy8Dt1if2VYp5IKADQBYi4ANyK03gVu8vta7n86nk8uVgwAANxCwAU1ZDtzaaJW/kXhN7zv40Vr6AwBrE7ABTTta2oC7iMAtXsdZSy38rxOwAQBr+6tTBbTkMAK3N1VVvauq6nw+nbS6lis2xn7T0ubYt/l4y3EAgBUybKzDehtyOogmHynj9n5Uj5+2cXZjvdqHjoO1yv0EAGzigbPFOkb1+B8dlY8xDCnTdlFV1Q/z6SRryeDShtgllGNezaeThytHAQBuoSSSdV0UMuBlP6Wg6mX6GtXjRfD2cT6dXGz720bm7rvCrtutfx8AYJhk2FhLZCk+O1t04DIadfwcf15dX/sW12f6qquq+raqqqeFZoSf7RKEAgDDI2BjbdEs4qUzBluZzaeTr5w6AGATmo6widM06HTGYCsyawDAxgRsrG0+ncwiaAM29845AwA2pSSSjaUNkGO9ELAe3SEBgK3IsLGNY2cNNiK7BgBsRcDGF0b1+OC+jYzn08ml9TiwkXOnCwDYhoCNfxvV49QS/VNVVWcpcLvnzLxaOQLc5DzWfwIAbOwvThnVH8Faatf/Pvau+o+qqr7+7ddffrzt5Pz26y+zB19/k9ZAHq18k32QAoz/G3ugLYKNEvc164Nn6X4Z+kkAALaj6cjARSbtLDYavu7RfDqZrhwN8d9+NpDfK2lD6tP5dLJSwhcZ2JNbrhVulrJr1nwCAFtTEjlgMQD/cMcA/M3KkSVR5qU0cn+cR5C+EqxVf7zf0/l08kzTmY380KPXCgAUSIZtoJaCtfuyY8e3DeAXRvX4g9LI3ruIYGwto3r8PDKz3G6jcwoAcBNr2AYoBtv/O9aq3ad+8PU3P/z26y//uu3vPfj6m5+rqnq+8o39lzpl/q8oIzxc83yWKGVKn9z1Hl/326+/TB98/U36neuVb7LwP6xdAwB2pSRyYLbIjKRB+cuVo0uizf+dWbg9M4vSwWfz6eR1rFF62OOtDt5t2cXwdOUIC2nt2pWzAQDsSsA2IKN6fLZlGduLUT0+XDn6pdOlboL7LDVheXi9GUsEPMeRbeubrQLNCEhubUozYDPBLACQi4BtICJY27Zs8WCNBiRp8P5u5Rv7JWUSn9yWjYrjvWsycVcn0DVctvZC++Od7BoAkIuAbQB2DNYWno7q8Z2NRVJ5YE8zTOtIJW63BmtLepdljDLZbf2z21dfnKu4DwAAshCw7blMwdrCnVm2sI9t/l9tsJfWtytHync2qseftwzc/r5yZNhseQAAZCVg22OZg7Wkvm9QP59OLvaoTC5ly1Jjkbcr37lBbJVw2552pTvcMnC7M+s6MBfRgAcAIBsB254a1ePXDbXafzOqx/ft3bYPWbZprFdbqyHHBvvalW7twC1KZO9rRjMUM9k1AKAJNs7eQy1savx2Pp3cGZSN6vGb+7YDKNh5lEGutR4tApf3exCs3SStSTy9afN0G6Z/4dm6wT1An0SX6Dsn8NZ0ddNnyaZijJNjstD2K/SGgG3PjOrx0wgemvbwrgddZOE+9zCIebVuCWTVTnBcii8Ct54H5LmlUshn+/UrAfwhJiU/ZDgdl6l518rRDWWcLHyijJ2++Kt3an9EWV5bwUP6Obc+eFN2alSPT9dsVFKCq8iSrN3ifmBBy6JU8iTKRfu6Vi+3K6WQ24uJnTqur/T1t/j3ZfW1iZ/ZDfv/fYw/0/GZQRgA+0TAtidi4NPmGqqjNOt218AoZapG9fhFD9Y5pVK24w1KIA8iYB1i0HJo3doX1r5uhi7um6MIwB7fEIit6+CG2fUv/n1Uj6sIplMA91PM7N/6rAKAkgnY9kcXDS9S0PJw5eiXjjOVUjRhFiWQa9fURy3/+xuyAAzPqSDgblFK9d1SoNamxeRCmlg5iSAuvV8/RgC3y4bxANAaAdseiPb9XQQQh6kb5V0bBacB7ageXxSYjZpGCeSt6/Cu2/PmImzm8q7rfsiiNPtF3POl3StHi2zcqB5fRXb9ncYDAJRMW/+ei6YXTbTvX9eLHrb5T5mRRxsGay/3pG0/u/t9vaPz+Kf0DEj3SNoOoqqqT/FMKv1eOYw1qGkLiw9bbhwPAI0TsPVYzGR33dTj4L7XEIHR6co32peyao82yYzEQPR9j5qn0KzFZurWrf15f7yOjrBvery+8Whp/8HXa0xCAUBrBGz9dlbILPbzKBe8y9sY7HZlkVXbpAtkHdkCHRFZeGXt00qgdrJHmefD+H3u3TgeANoiYOupaClfUuOLk5UjSyIj0UVp5MZZterPEshPOiKy5MYNxIcm7o19C9SuO1jKuNkcHoBOCdh6KAYQpe3/dXTfjHQMdtvMTmyTVVMCyU3Oh95kJGWcR/X4U9wbQykZTBM2aX3bG2WSAHRFwNYzS3uAlehkjUFNG5sMp85vD7fIqh1F5kAJJMum8+lk0JtjR/njpwFvZ/F7xj3KpAGgVQK2/jkpuEzv8L7MX2S7mhr8pj2Wnsynk43a9Vd/lpjqAsl16Xp9snJ0INK+g5FVu7PkeSAOI2i78xkHALkJ2HokZndLHyycxObSt4rSyJxBWwrOjufTyZNNNzJeKvMyCOO6WUwADLIjZGSch5xVu00qjzxTIglAWwRs/VJqKeR1967/iqDt2Y6dI2exXcCjbZpBKPPiDkMP1p7LON/peaxtc34AaJyArSeiDKcvgcXTUT2+dx3YfDr5fa1Zauiw8s27zWKbgN/XqW06qF7Kqinz4iaLYG2Q7fujPLgvk0NdqqNE8s6KAgDYlYCtB2IWt2/BxVolQynYioYOD6Pt/10ljZfxd1Kg9mqLQO1AVo17DD1YO1MevJGrTdfLAsCm/uqM9UIf22gfRMnQWmVlMeh5G19VzFovZq53HhTFepwz+6pxB8HaH6V+rG/Q3UMBaIeArXARuPR1EFVvErQtiwBt55nrOH9pIGrzW+4y9GDtdYHPmfueAV3f06eyawC0QcBWvr6vJdk6aNtFlGO+kTFgDUMP1p53XHJ9FeXOP8U2CtNNnhVL2fgUwH0bz5ymM+nToW+kDkB7BGwFizK+fcgMLYK24zYGxZEteKHDHWsYerBWdzQplM73D2mT+12zVEvZ+H+vf40gLj07v2toI/xXK0cAoCECtrLtUxfDRdCWyojernw3g6VMgXVqrGPowdpBtO5vyyw6wr5rupQw/v/pZ53H75mCtu8zTYC93XS/RwDYhYCtUHuUXVt2EJvOvoj1HxvvnXaTOFcn1qmxgWlstj7IYC28bykLnQK1dxHotL6vXfzMRfB2FIHbtqXSi70fAaA1ArZy7fMeYYfR9v8kBnIbl0UtzZq/0KKfDU2HvCl29ee+jm1McKS9Fl+V0pwjMmOXo3r8w5aTPMdDvm4A6IaArUB7ml27yWE0BklZt2msQfmYZrGvlxzFOTmI4OyxbBpbStfVs4EHa4ctTAjNIri5WPlOAZYCt03KqC9K/X0A2G8CtjK9GODvXMfX75v2jurxyl+AHZ3HJu1Dd9ZwKeQ0guLiW96nsuxRPb6I585dQezUnmsAdGXkzJclZr+b6GoGQ3YqWGsle38R5aa92Z8sZVujRf/DWOt23fnQS2gB6JYMW3numuUFNnecq8HNHmiyhX+vM5gRZKbXfxyBbbXpnnAA0AQBW0GWGmkAuxt02/7rYr1WU1te7FW5qbb9AJRESWRZntrsGbJIQdojwdoXmsreT20kDQDNEbCVZYjNRiC3876to2pag9m1mfVdANAsJZGFGNXj2n5isLO059dbp3FFU9m1QW+RAABtELCVQ3YNtjeL4MHao2uigUYT2bW3znf/LK2VfhzXxU1dQ2dR6vox9p9rvbR4aRIzvcZvY7nA4RrX8mW8/p/in/e2cUy8l0dxnhbn6Kb3c+EqvqaL86MSoWxLz+/l++Au6f38Od7jK8sC9oeArRyajcB2erPvV0e+b+DHpnN9unKUtUVA8maD/2QRhJxvc63HwC9dC89XvrlqMfBPXyejenwZW2M0FqDH+VgEkncFHfdZ/LdPF5nleP0/RPDZ6+AtgrT0Hn63xXk6vB6kj+rxNM7NuWx59+I+/W4pEN/JqB7PYuJiMfnic7KnHgz9BJRgVI/TB8v7oZ8H2ELK8mh4cYsY3P3j5u/uxFYJO4qB2Yct/y9rn/+4Bs5yTArOp5OsY4YI0r6P19ZUB9PrziP47NXANfZoPVkz4N7WeZSVfxG47XitLksZvScrRzc0qscfMu0n+aSEKoF4b1/Ee9t047kUoL/bh8mLodF0pAzfDf0EwIYWJZCCtbs1kbm/Eqx17k0EYneKgfbn0io4UhOcUT3+VFVV+nrZYrBWxaD486gen61zDruWBvPptcb72GSwtnxuXq98h+zS/RnB5+e4D9q4HuuYwPn9fe7DPcAfBGwdWypvANYzjZnRC+frXk1MBimF7N59a5UWnUE/lLJVTPqsiwHiP2LA2HWTrUVwUuxyhFE9fhlBbZtjhIMog/0UGVAyS+c1ArVcmcKt3+e4B16ufJfiCNi619XNCn00tRn2ehraiF92rRy3DqYjWDtb+cZutr7n4vV8igFiSTP66bW8jwxWMSK4/RBrHLs6X+n6+hDvHRnE+/om7oVSxn4HkbEXoBdOwNY95ZCwnrQo/pG6+7U1MSB4t3KErnx7089tKFirogx5I0uZhLOWyx439TwGrJ0HkzFo/lzIgH6x/lEX6x1FefKiBLhEAvTCCdi6pzsk3C8Fa8fO00aamAySXSvHSnDRYLC2sVgHVVIm4T6LAevKeW1LlGcWU8a6xDhlB3EvfCh80qJaBOiRBaQwArYOxYyLBZ9wN8HadnIPlHUVK8sX5UtbbBOwqY/r/P1okvGpwc3am9RZ0BbB9ntjgv0S5bZ9uxdellYmjICta8oh4W4XgrXNxYAz92zujytH6NK/B/ZLrfs7HewvlX31eS1M04Hvigi2DZD3SKxXa7thTE7PBW1lEbB1S8MRuF1qciBY204TA2ZdOQsTAVIVM/idBkmldaXc0fO21vJEsJZjjzPK8qHnExdV3Ae2eCiEgK0jMSOqIw/cbBbdIJXgbSf3ZNDUe1GmGPC30cjg1g2GS1o7l9Fae93topTMKHlFZmpfxncnJW99MSQCtu7IrsHtBGu7ubGD4A5uHazTqaO2y/dusY/Xx0EL5/aNidv9Ehmpfeu02ItN5vedgK07j4f6i8M9XtlnbWe5P1x/WjlCCb5vcfLv1gmU+XRytacdRFNJWCOd/SJr0dbA/vKGL8/YzOI9barByOIeS8sEnlRVlba4eZC+qqr6Ko49q6rqtIH39sAay+79degnoEMybLDqcj6dvF05yqayl0SuHKEErbUJX2MS5VW0f885WTCLQOOnO7J4h5FRftrQ+TjJvZZ2qRSyKem9+iGep3e+b1FSexTBv2zflhp8T1OQ9u6u9zGqURb3R1pr/DomGk4yTgo8TQHpfDqxlrkjArbueDDCl2YxQ0hh7hosQBWDxlE9fpcpw5AGqT9uODh8FU1YTjJPWKQs22lkEXN52dC6tTRoT6/1tuB2Rdzb6ettQ+dvKHKvRUzv4fG21138d8fp2o3XluM9faP5VHeURHZgqbMX8Kdj69Z218DzJedAlX5at9zx7Q7XyyzKub5KW3lsM5OfApX5dPIksn05ZWu6sJT5yC2Vkj/ZJFi7bun8PburBJaV9/Qo8+bii/dy52dv+n/Ee3q68s3NHbbVPZVVArZuCNjgS5dKLYolYNsfVxFUncaal8XXcRw7j5n95cH6xboBUEy4bBMspZ/7cD6dvM4xaRNl1TnLGL9fObK93MHaLNYzZSslj2fxQ6XQa8tZCnncxLKAdG9luif6uCH+XlAS2Y3cHdyg7+y3Vi4z7f137zqYXNJgf1SPz9dcO3PZVJOh+XRyPqrH32ba8qBOmbFdMx6xzilnhmKx/UkT5y+VuD7Zk/3EGhMZp1xrJ1Ow1ljznrgnHu94DR5ay9YNGbZuePjBn3KvDxm63M8XHSL7axqZq+M21yGmnxeZvNtcxeC0kWBjyWnGDHGOypjc++U12lE3sp1PZNrulCvjdN5ksLbkVYZ7ImfGmTUJ2LrRWmcvKNzsnoEdm7NfDlUMAB91NRkyn05eRVndaZRVXsQ/P5tPJw/bGJxGwPFu5RvbybEVT86B7kWL5zD3msC9EG38c4znWjvH8X7uWtHy1L5s7VMS2TINR+ALrzQagezOI8vVqQgWX3f8Ms4zbYC9U+Y64+C+igG+MvLu5QrAW/0cTM1lRvV4uuM1/XRP914sloCtfbJr8IerlkpA2DMxu1tKafm0sEmHIoK1UsRarMsMJY27Xm/frRzZ3jsTXd2KZ1COzpBdfQ6+27FZymMBW7sEbO0TsMEfcrQZZpjqaIZQgid3bOrctivlazf6mGMNWtpkeoc1Yznbvisj716u5jG5SnY3dbFjwPZUlrdd1rC1L0cdPPSd7BrkZy/Dm+VqmrHVup0U6GVcW3ruPS5CrrFcJ5+DcQ3tMtF0EHsK0hIBW/ss1ITuZhVhX13ssmnynus6wMmZXftx5QhdyPGeXnYcfH9cObIZHc9bJGBrnwucoZupfYfslELeruvW/rmyMTP7X3UvY/O4roPvXe8L49kWCdhapA0q/E5JT7NyZ1n+vnKE0pzby/B2BZybXANbGdQy5ArYut7fbtf74tuVIzRGwNYusxGgHLJvrFMonwY+hYp1Prkma3ctYSOPLBnTPShhloRokS6RQJsuZQIgq6l7qmg5J2q7zsjwhyybZY/qcdd7FO5aPSFga5GArV0ybAzdD0M/AU2LTVFz/hSb/ZdNeXHZBGz7J0fAloKdk5Wj/WJM2yIlke0yG8GQzWLvF3pG+2bY2t8ynbqZtb/diy0aoHUybEBbLgw4WnOZOTN2mLHTHjQmJhdKmmDINcCXXSuDiXc6IWBrl02zGTL7B7Und3B1pEMdXYvsxmEEQX9bCoZybkwNUBwBG9AG+we16+fMP037ZloTW+DUMVHw7VKQ1ke5sn0y3GWwppdOCNiANgjW2nWZeUF7aYOUaayJlFXZE6N6/DSqUI72rJlBroAt9yQM0CMCNqANyiHblXu9y0EqR5tPJ0Wso0lrIUf1+FVVVWcr36QXIouWgrTv4k+gX2R9WyRga5fuQgyV9U8tioBmmvmZ831JjQ/m08n5qB5fxmB/m0zbY+VN7RvV46O4lp4P7XeHPaMRTosEbO1SvsMQXeoO2YnLzAFbCoxerRztUGwY/XabVxCb1grYWjKqxylAe2HiEvaGypkW2YcNaNpHZ7gTuT9MDyM7AmtL18yoHn+K8lXBGn2nDPAPaSL2fOUojZFhA5qm4UgH5tPJ5age527M8b3yVtYRa9TOrE9jz+QK2C57PJmZgjWfAy0TsAFNmpXSqGKgLjKvFXo+qsenUYoIN4pM7FlhG1hDST7Op5PX3hHWpSQSaJJgrVtNrDHQLIJbxVq1D4K17P6+Z7/P0Nnbko0I2IAmWb/WodisPHfDlxdR7gZfGNXjNwVttXB57avL15GDALgAGUsBPUPZiJJIoEnq3LuXFoa/zPgq0kAjDcyPV77DYEXXzZzX2V1mkb1PX/9ces5Mb+tIO6rHv60chO2vv10DLg2c2IiADWiSksjuvWtgIJ3Wsr2zPpHqzzLIkwZPxnSpScNQtwnRYbMc0xwB16geH1oPzLoEbEBTbp3tpj1pQDCqx+cNrD1LpW+PVo4yKKN6XEfGNbcUoP2QGuf0/DnyMVM2RQldOXIFWUdRAQH3soYNaIrsSzl+aOCV1LFmiWF7kzmYSAPYh/Pp5Ena58mkz5/sg1iMnzK9kMcrR+AWMmxsYhaznj/FYHx2fQFuNCOo4wO8jgeSD5k/ZuTSufo5/lxpd5/KI2Jh+WF0kDrqeRnMzytH6ETsyXbZwL34clSPP0ZzEwYmSiFzXVPpeXi8h2W2lxnLRTUeKUOutdnGRqxNwNauqx4+cGexl9MP63RHitnQxd/79yBuVI/T5qnfxSaqQyntuFoq6bl3EBK17F+UWkQAvHzu+kTDkbKcNjRAOBvV4yvr2QbpRaZfOmXVXu1pNi3nGqXHSui6l551o3qco/HIYcqa2oSadSiJbFefFpdexWznV/Pp5HjXB0qagU//n1TqEgPHfV5om87Vs/l0ksp6Xu8ykE0DmCgLehbn7m0DbdqbYjF1QeIebmKwlwYtH2ItEwMRFQE53vPL+IzZy9LHzE0lZGTKkSvI+n7lCNxAwMZ1swjUUrCRfXAXAcjraFZw2qPgYx3pg/lJrL3IXiKWPvjn08mrOHfFz7LqflWkpu45Qdvw5Mj4zwayPUS2vdjcY8X4MdMLeW5fS9YhYGPZRSz2bjwYuBa47UM5wGkEuY3/LhG4pUHOk4KzWEo8ChRB9GlDr0zQNiw5GiZcDGRiJ2e5sIxMGXJOyra1fyE9JmBrV6nZpEVW7VnbZSkRfKTA49XKN/shDTYeRfDZqggOS8226exWqPl08iS40zsAAAm+SURBVLbBDp6LoC33FgKUJ0dgnitLUbqPGV9fF2uZBYnXxFgpV9B2EiXGcCsBW7tytYLNaRZlfJ0O+mMQ+aRnA/1pBGudNVuITOVxgQFvidc6f3rW4L12EI1IzpT67LUcA8yhNKrJWXFw2OaESPwsEzA3y7ldytnKEVgiYBu2zgOOZZEx6kvQdh6BbhGvNQLektaCWL9WsChDazrIT4O8T9EhFla0VQ7Z9cRB5mxMFRmZxn+nCNYEEreIterZNtEe1eMiSiNT58qlL5NuhRCwtaukQGSRWStqYB3BY+lB27TErmaRJS0laBOwFS6ul6Yz6ykL835Ujz+UsulvGoCM6vFrZV7da2O9Yww4P6x8o305yyIPM+7tdiPB2treZfx/vemqnHzxXBzV43/E/bL4+qzEvQwCtnaVUv4xKyk7dN1S0Faikl/bYhBeQnmkNWw9EOW0bTyXjmJt24euMm4pOEhlmmkAEoNda0a61+h7sBSsldAIJ/fkyMumBtJxnwjW1nOe+fPurO0AKX7ep3guXs+oLUrcVUp0TMA2TMelb3Ibr6+0dVmz2F+t6GAkyiOzbyuw4WuwiXJ/PGlxMukoMm5p1vZN0xmWCNLSwPZzDEie3zAgoTs5Ok3eKJo4lBKsNVEWWUVGJttAOp2zUT3+ZM3a+uJ9zZllqyJAaryRWZQ9fo7g/L7JkzONUbolYGtXCYPYt03sEdaEEgKPa4571IL6WFki64gBx3HLWdHDaGWd1rj9Y1SP30dgtVPZZARoz6PhySJIeyOb1ogcz5dG9qCKIOZTKcHakpxNKqqYfHi/6+B+qUy4xHNWvOgSnfvzNq1T/NREKXk8Ixclj+s+GxfXmgmvjvx1kL91R9LAaFSPu3wJTe7B1JTjmJXv+iFx0ZdAt/rzWjvuaO2G7FrPpIzoqB4/ieul7XvtIFqV/54piGfkVXzN7uk4+rcYYB4YaLbuKkMgfBABdZa1tzGYPCl1X6v0GTKqxznO23VpcP99fL5frFsFEhmTlE17IfO8syY+b+soJU8N2d7tMgaJ9/pFPGe3vf7qnPcrmxGwta+Jh/W6imuUcZ8IPE7jIdGVWR/3iUtdN0f1+KKDfXusX+uhjoO26w6XnpPWTpTpY0ym7SrN9i/WU24lArXnt6zBKc1pQ+vDDuP/exbP/Z9i8mz5ebyY2Ph7vHcyz5k0/Hl7FF0kF2W16d67is7aN4py88MoOz7KOKGV7tefogKKFgnY2tdVwHZ5181dsvRgGNXjFx1+uLzrUSnkda8MeFlXBG1pM/b3MlbcI2cm/XmUfp1usidoDEq/79PaxPT7jepx001vnnrud+I4nptNvbeLiYnf1xh2WLGV1k5eWqveLgFb+6aZZiU31bdSyOuampW8T5rR6u1MUgo0R/X4vOVF5NbO9VhcM08iaCuiFT/lifK+WcZA6TCyQ29io+mflkpjq2tlr4+XSmH76FXcX+yRqAh6VkiVQtNSqebDvlVt9ZmmI+37Zwc/c9rX7NpCzLp28WBYez1AwXJ3sLrPz/d8n8Kla34+nTzp82QFrWhiXe9iTeNJTNItmiO8j2Mnhaxr3lqsRerNmmjWV2iH6yZcCdbaJWBrXxeBU+7OVF1pepPfm7Qd7GQXHyBKF9jYfDpJA49n1iXe6rTvk2E72pfPli603Zl1VxpNrCkmmPf5fBW9H+2+ErC1r4sHdBeBThPaHhxc7VGNtoEVW4lswMOOJptKlZ4Lj6Kd92BFsNqX62JW0iA6shPPVr5RpuMIQkz8rWmPg7bfgzXZtfYJ2FrWQQAw3ZcbK85dm+uj9qlkRfkNW1sqkRx6tm0WWbVHFtz/Wx8GpYsAu6vS+htFwFt6+dzxUiMYkzYb2MOg7Vyw1h0BWzfa/KD/ceVIv7X5gbE35y66XLYV7BrI7qmlbNsQ17ZdyKqtimdLyUHHRQwyr5b+vRjRHr3EKpjZUpC7cNeeiNwgzt8+THSliarebQ21TwRs3WgzS7RvM2JtfmDsW+DR1u/jgb7HItv2KgK3fSm3vstlDPif9Xh7j0YVHHS8ivdt+ZlU3ERc7EFX0vlblL1d/8wwGbeFmOh61NPzp/y7EAK2brQZdOzbAKOtB94+dkAyO0o2KXiJgea+Bm6LQO3JwBuLrKWwoOMqBpk3ZYKLfC/j/JWQqXx7S7DWxZKOvRHPy0exRVEfxhbKvwsjYOtGax8Yezgj3FrAtnKk/zx0yW4pcPsqBiN9vndmEXQ8EqhtLq6Dm4KkNp3G+3fj8y4m4opc0xsB5pOOBvRXEai9umey0j2xg8hUPSp8kitdhw9l1coiYOvGtKUH8t7NescHSRsfGPu29q+K89b0dTczyB2mKJV8PZ9OHsaajaIaPNzjMpoDPIx1GjcO9rlfh1tBnC8GmfcEHFXJ27XE87PtrPUiyF3n2a3j8I4KrU6YxXXw1RpBOx0QsHUgboSmSx8WN98+etXwYGB6SylNr7V03dmrh9/XbETg89VS8FZS5m2RZVkEaSmzcG6QksdSc5o2yr/OlwLtta6xCEyKfcbH5MdxZGKaygbONgxyF69Ne/9MrgVuXVUnpOsrrfP8apPrgPY9cM67M6rHR1VVvaiq6iDzi5hG7fHe3nijenxYVdVJVVWHK9/czY/7GKwta+i6Sx8072QmuMuoHtdVVaWvx/Fnfcdfz+kqnotpHedlCVnguA8/rHxjc5ex5UKRRvU4PWeexjMn1/t9EVUQF7t8zi09C+s1P0tOuygTi8+7F3Eed/3M2/ncxXv6sqqq7zZ8T7Ncq6N6nO6bo5VvbK64sud4Rj7d4tyuaxoVBR9jYoWeELAB0JkYNB/E4OTvSwPSesNJhUWp+SwCs8VWFnuzF2XfxUD/aClgP1wjALlcek+LCLa7FAP6dA6/jXN3230yW7onnLueiufj4tm4CODuC1YX7/MXz0LvPwAAAAAAAAAAAAAAAAAAAAAAAAAAAAAAAAAAAAAAAAAAAAAAAAAAAAAAAAAAAAAAAAAAAAAAAAAAAAAAAAAAAAAAAAAAAAAAAAAAAAAAAAAAAAAAAAAAAAAAAAAAAAAAAAAAAAAAAAAAAAAAAAAAAAAAAAAAAAAAAAAAAAAAAAAAAAAAAAAAAAAAAAAAAAAAAAAAAAAAAAAAAAAAAAAAAAAAAAAAAAAAAAAAAAAAAAAAAAAAAAAAAAAAAAAAAAAAAAAAAAAAAAAAAAAAAAAAAAAAAAAAAAAAAAAAAAAAAAAAAAAAAAAAAAAAAAAAAAAAAAAAAAAAAAAAAAAAAAAAAAAAAAAAAAAAAAAAAAAAAAAAAAAAAAAAAAAAAAAAAINQVdX/ByH6vQXYRoJ4AAAAAElFTkSuQmCC;" vertex="1" parent="1">
          <mxGeometry x="656.26" y="395.99" width="126" height="44.01" as="geometry" />
        </mxCell>
      </root>
    </mxGraphModel>
  </diagram>
</mxfile>
